<?xml version="1.0" encoding="utf-8"?>
<!-- Generator: Adobe Illustrator 16.0.4, SVG Export Plug-In . SVG Version: 6.00 Build 0)  -->
<!DOCTYPE svg PUBLIC "-//W3C//DTD SVG 1.1//EN" "http://www.w3.org/Graphics/SVG/1.1/DTD/svg11.dtd">
<svg version="1.1" id="Layer_1" xmlns="http://www.w3.org/2000/svg" xmlns:xlink="http://www.w3.org/1999/xlink" x="0px" y="0px"
	 width="612px" height="792px" viewBox="0 0 612 792" enable-background="new 0 0 612 792" xml:space="preserve">
<g>
	<path fill="#FFFFFF" d="M399.024,172.62h-0.612h-232.56v55.08h233.172V172.62z M380.664,209.34h-0.612h-195.84v-18.36h196.452
		V209.34z"/>
	<path fill="#FFFFFF" d="M220.932,264.42h-55.08v55.08h55.08V264.42z M202.572,301.14h-18.36v-18.36h18.36V301.14z"/>
	<path fill="#FFFFFF" d="M220.932,356.22h-55.08v55.08h55.08V356.22z M202.572,392.94h-18.36v-18.36h18.36V392.94z"/>
	<polyline fill="#FFFFFF" points="269.5,282.78 239.292,282.78 239.292,264.42 269.5,264.42 	"/>
	<path fill="#FFFFFF" d="M269.5,282.78"/>
	<path fill="#FFFFFF" d="M286.5,282.78"/>
	<polyline fill="#FFFFFF" points="285.5,264.42 398.412,264.42 398.412,282.78 286.5,282.78 	"/>
	<path fill="#FFFFFF" d="M285.5,264.42"/>
	<path fill="#FFFFFF" d="M269.5,264.42"/>
	<path fill="#FFFFFF" d="M335.5,319.5"/>
	<path fill="#FFFFFF" d="M365.5,319.5"/>
	<polyline fill="#FFFFFF" points="366.5,301.14 398.412,301.14 398.412,319.5 365.5,319.5 	"/>
	<path fill="#FFFFFF" d="M366.5,301.14"/>
	<path fill="#FFFFFF" d="M334.5,301.14"/>
	<polyline fill="#FFFFFF" points="335.5,319.5 239.292,319.5 239.292,301.14 334.5,301.14 	"/>
	<polyline fill="#FFFFFF" points="276.5,374.58 239.292,374.58 239.292,356.22 276.5,356.22 	"/>
	<path fill="#FFFFFF" d="M276.5,374.58"/>
	<path fill="#FFFFFF" d="M298.5,374.58"/>
	<polyline fill="#FFFFFF" points="298.5,356.22 398.412,356.22 398.412,374.58 298.5,374.58 	"/>
	<path fill="#FFFFFF" d="M298.5,356.22"/>
	<path fill="#FFFFFF" d="M276.5,356.22"/>
	<polyline fill="#FFFFFF" points="319.5,411.3 239.292,411.3 239.292,392.94 320.5,392.94 	"/>
	<path fill="#FFFFFF" d="M319.5,411.3"/>
	<path fill="#FFFFFF" d="M332.5,411.3"/>
	<polyline fill="#FFFFFF" points="331.5,392.94 398.412,392.94 398.412,411.3 332.5,411.3 	"/>
	<path fill="#FFFFFF" d="M331.5,392.94"/>
	<path fill="#FFFFFF" d="M320.5,392.94"/>
	<polyline fill="#FFFFFF" points="348.5,466.38 239.292,466.38 239.292,448.02 349.5,448.02 	"/>
	<path fill="#FFFFFF" d="M348.5,466.38"/>
	<path fill="#FFFFFF" d="M359.5,466.38"/>
	<polyline fill="#FFFFFF" points="357.5,448.02 398.412,448.02 398.412,466.38 359.5,466.38 	"/>
	<path fill="#FFFFFF" d="M357.5,448.02"/>
	<path fill="#FFFFFF" d="M349.5,448.02"/>
	<polyline fill="#FFFFFF" points="274.5,503.1 239.292,503.1 239.292,484.74 274.5,484.74 	"/>
	<path fill="#FFFFFF" d="M274.5,503.1"/>
	<path fill="#FFFFFF" d="M292.5,503.1"/>
	<polyline fill="#FFFFFF" points="291.5,484.74 398.412,484.74 398.412,503.1 292.5,503.1 	"/>
	<path fill="#FFFFFF" d="M291.5,484.74"/>
	<path fill="#FFFFFF" d="M274.5,484.74"/>
	<path fill="#FFFFFF" d="M128.52,448.02l91.8,91.801h214.2V135.9h-306V448.02z M203.184,498.204l-32.436-32.437h32.436V498.204z
		 M146.88,154.26h269.28v367.2H220.32v-73.44h-73.44V154.26z"/>
	<polygon fill="#FFFFFF" points="165.24,99.18 165.24,117.54 452.88,117.54 452.88,503.1 471.24,503.1 471.24,99.18 	"/>
</g>
</svg>
