<?xml version="1.0" encoding="utf-8"?>
<!-- Generator: Adobe Illustrator 16.0.4, SVG Export Plug-In . SVG Version: 6.00 Build 0)  -->
<!DOCTYPE svg PUBLIC "-//W3C//DTD SVG 1.1//EN" "http://www.w3.org/Graphics/SVG/1.1/DTD/svg11.dtd">
<svg version="1.1" id="Layer_1" xmlns="http://www.w3.org/2000/svg" xmlns:xlink="http://www.w3.org/1999/xlink" x="0px" y="0px"
	 width="612px" height="792px" viewBox="0 0 612 792" enable-background="new 0 0 612 792" xml:space="preserve">
<path d="M386.58,128.632l-168.109,62.156L42.712,125.828v349.86l171.743,63.463l1.339,0.51l4.112-0.031l166.642-61.137L561,542.976
	V193.147L386.58,128.632z M210.471,521.269L58.108,464.945V147.917l152.363,56.323V521.269z M225.866,203.985l153-56.1v317.061
	l-153,56.547V203.985z M545.604,520.887l-151.343-55.973V147.917l151.343,55.94V520.887z"/>
<path d="M56.291,414.137c-4.303-0.638-6.949-1.339-6.949-1.339l3.315-12.335c0.159,0.063,2.231,0.573,5.514,1.083L56.291,414.137z"
	/>
</svg>
