<?xml version="1.0" encoding="utf-8"?>
<!-- Generator: Adobe Illustrator 16.0.0, SVG Export Plug-In . SVG Version: 6.00 Build 0)  -->
<!DOCTYPE svg PUBLIC "-//W3C//DTD SVG 1.1//EN" "http://www.w3.org/Graphics/SVG/1.1/DTD/svg11.dtd">
<svg version="1.1" id="Layer_1" xmlns="http://www.w3.org/2000/svg" xmlns:xlink="http://www.w3.org/1999/xlink" x="0px" y="0px"
	 width="534.678px" height="547.359px" viewBox="30.6 45.987 534.678 547.359" enable-background="new 30.6 45.987 534.678 547.359"
	 xml:space="preserve">
<path d="M82.774,160.479c-18.018,6.169-35.1,16.132-35.1,16.132s19.449,14.229,93.918,11.377
	c74.457-2.845,76.836,1.427,94.855,10.435c18.014,9.008,47.424,72.086,77.783,89.167c30.35,17.07,25.135,34.615,30.826,62.119
	c5.691,27.521,29.309,116.543,76.273,168.672c46.959,52.125,130.203,71.973,130.203,71.973l13.746,2.992l-0.393-440.701
	c0,0-54.143-68.288-126.701-89.633c-72.571-21.347-119.523-20.275-152.607-9.602c-33.076,10.667-3.197,2.124-55.48,1.065
	c-52.289-1.065-57.627,4.271-57.627,4.271s-29.936-2.142-57.447,3.079C87.52,67.046,54.79,78.422,42.465,95.026
	c-12.338,16.598-11.861,23.244-11.861,23.244s30.826-18.508,79.205-13.287c48.373,5.22,142.283,36.524,142.283,36.524
	s-60.201,0-88.881,1.934c-13.418-2.307-29.09-4.449-39.521-4.07c-21.553,0.783-35.77,6.658-35.77,6.658s30.926-1.451,46.947,0.275
	c1.26,0.129,2.689,0.257,4.211,0.38C119.817,150.166,97.028,155.606,82.774,160.479z M323.002,115.178
	c0-7.859,6.371-14.217,14.229-14.217s14.223,6.359,14.223,14.217c0,7.858-6.365,14.235-14.223,14.235
	C329.372,129.413,323.002,123.036,323.002,115.178z"/>
</svg>
