<?xml version="1.0" encoding="utf-8"?>
<!-- Generator: Adobe Illustrator 16.0.4, SVG Export Plug-In . SVG Version: 6.00 Build 0)  -->
<!DOCTYPE svg PUBLIC "-//W3C//DTD SVG 1.1//EN" "http://www.w3.org/Graphics/SVG/1.1/DTD/svg11.dtd">
<svg version="1.1" id="Layer_1" xmlns="http://www.w3.org/2000/svg" xmlns:xlink="http://www.w3.org/1999/xlink" x="0px" y="0px"
	 width="196.095px" height="31.617px" viewBox="0 0 196.095 31.617" enable-background="new 0 0 196.095 31.617"
	 xml:space="preserve">
<g>
	<g>
		<path fill="#FFFFFF" d="M16.526,31.198h3.3v-12.48c0,0-0.276-5.882,2.498-5.882V9.757c0,0-0.094-3.879,3.638-3.879L25.958,0H0
			v5.877c0.184,0,0.358,0.01,0.525,0.025h16.038v1.677L3.169,7.587C3.71,8.629,3.633,9.757,3.633,9.757v2.739h12.963v1.683
			L5.445,14.168c0.838,1.737,0.69,4.55,0.69,4.55v12.48h3.784V18.911c0,0-0.023-0.514-0.588-0.514c-0.609,0-0.626,0.482-0.626,0.482
			H7.417c0,0,0.075-2.028,2.003-2.028c1.927,0,1.785,1.982,1.785,1.982l0.035,12.365h4.001V18.943c0,0-0.011-0.52-0.618-0.52
			c-0.597,0-0.616,0.488-0.616,0.488h-1.312c0,0-0.025-2.039,1.981-2.039c2.009,0,1.848,1.939,1.848,1.939V31.198z"/>
		<g>
			<path fill="#FFFFFF" d="M60.333,26.223c0.15,1.367,0.414,3.495,2.029,4.027c1.089,0.342,2.066,0.342,2.442,0.342
				c0.188,0,0.3,0.038,0.3,0.189c0,0.229-0.338,0.343-0.789,0.343c-0.827,0-4.884-0.038-6.274-0.152
				c-0.864-0.076-1.052-0.19-1.052-0.38c0-0.152,0.075-0.229,0.263-0.266c0.188-0.038,0.225-0.685,0.15-1.368L55.599,9.239h-0.113
				l-9.204,19.757c-0.789,1.672-0.902,2.014-1.24,2.014c-0.263,0-0.451-0.38-1.165-1.748c-0.977-1.861-4.208-8.435-4.396-8.814
				c-0.338-0.684-4.545-9.803-4.959-10.829h-0.15l-1.503,17.629c-0.038,0.608-0.038,1.292-0.038,1.938
				c0,0.57,0.413,1.064,0.977,1.178c0.639,0.152,1.202,0.19,1.428,0.19c0.15,0,0.301,0.076,0.301,0.19
				c0,0.266-0.226,0.342-0.676,0.342c-1.39,0-3.193-0.114-3.494-0.114c-0.338,0-2.142,0.114-3.156,0.114
				c-0.376,0-0.639-0.076-0.639-0.342c0-0.114,0.188-0.19,0.375-0.19c0.301,0,0.563,0,1.127-0.114
				c1.24-0.228,1.353-1.709,1.503-3.153l2.705-24.772c0.038-0.418,0.188-0.684,0.414-0.684c0.225,0,0.375,0.152,0.563,0.57
				l11.496,23.899L56.801,2.438c0.15-0.342,0.301-0.608,0.563-0.608c0.263,0,0.376,0.304,0.451,1.026L60.333,26.223z"/>
			<path fill="#FFFFFF" d="M71.833,13.38c0-5.927,0-6.991-0.075-8.207c-0.075-1.292-0.375-1.899-1.615-2.166
				c-0.301-0.076-0.939-0.114-1.277-0.114c-0.15,0-0.301-0.076-0.301-0.228c0-0.228,0.188-0.304,0.601-0.304
				c0.864,0,1.878,0,2.705,0.038l1.54,0.076c0.263,0,7.739,0,8.603-0.038c0.714-0.038,1.315-0.114,1.615-0.19
				c0.188-0.038,0.338-0.19,0.526-0.19c0.113,0,0.15,0.152,0.15,0.342c0,0.266-0.188,0.722-0.3,1.786
				c-0.038,0.38-0.113,2.052-0.188,2.508c-0.038,0.19-0.113,0.418-0.263,0.418c-0.225,0-0.3-0.19-0.3-0.494
				c0-0.266-0.038-0.912-0.226-1.368c-0.263-0.608-0.639-1.064-2.667-1.292c-0.639-0.076-4.733-0.114-5.147-0.114
				c-0.15,0-0.225,0.114-0.225,0.38V14.71c0,0.266,0.038,0.38,0.225,0.38c0.489,0,5.109,0,5.973-0.076
				c0.902-0.076,1.428-0.152,1.766-0.532c0.263-0.304,0.414-0.494,0.564-0.494c0.112,0,0.188,0.076,0.188,0.304
				s-0.188,0.874-0.3,2.128c-0.075,0.76-0.15,2.166-0.15,2.432c0,0.304,0,0.722-0.263,0.722c-0.188,0-0.263-0.152-0.263-0.342
				c0-0.38,0-0.76-0.15-1.254c-0.15-0.532-0.488-1.178-1.954-1.33c-1.014-0.114-4.733-0.19-5.372-0.19
				c-0.188,0-0.263,0.114-0.263,0.266v3.344c0,1.292-0.038,5.699,0,6.497c0.113,2.621,0.676,3.115,4.357,3.115
				c0.977,0,2.63,0,3.606-0.418c0.977-0.418,1.428-1.178,1.691-2.735c0.075-0.418,0.15-0.57,0.338-0.57
				c0.226,0,0.226,0.305,0.226,0.57c0,0.304-0.301,2.888-0.488,3.686c-0.263,0.987-0.564,0.987-2.029,0.987
				c-2.817,0-4.884-0.075-6.349-0.113c-1.465-0.076-2.367-0.114-2.93-0.114c-0.075,0-0.713,0-1.502,0.038
				c-0.751,0-1.615,0.076-2.179,0.076c-0.413,0-0.601-0.076-0.601-0.305c0-0.113,0.075-0.228,0.301-0.228
				c0.338,0,0.789-0.076,1.127-0.152c0.751-0.151,0.939-0.987,1.089-2.089c0.188-1.596,0.188-4.598,0.188-8.245V13.38z"/>
			<path fill="#FFFFFF" d="M94.752,13.38c0-5.927,0-6.991-0.075-8.207c-0.075-1.292-0.376-1.899-1.616-2.166
				c-0.3-0.076-0.939-0.114-1.277-0.114c-0.15,0-0.3-0.076-0.3-0.228c0-0.228,0.188-0.304,0.601-0.304
				c1.69,0,4.057,0.114,4.245,0.114c0.413,0,3.268-0.114,4.433-0.114c2.367,0,4.883,0.228,6.875,1.672
				c0.939,0.684,2.592,2.545,2.592,5.167c0,2.812-1.165,5.624-4.546,8.777c3.081,3.989,5.635,7.371,7.814,9.727
				c2.029,2.166,3.644,2.584,4.583,2.735c0.714,0.114,1.239,0.114,1.465,0.114c0.188,0,0.338,0.114,0.338,0.228
				c0,0.229-0.225,0.305-0.901,0.305h-2.667c-2.104,0-3.043-0.19-4.02-0.723c-1.615-0.873-2.93-2.735-5.071-5.585
				c-1.578-2.09-3.344-4.635-4.095-5.623c-0.15-0.152-0.263-0.228-0.489-0.228l-4.621-0.076c-0.188,0-0.263,0.114-0.263,0.304v0.912
				c0,3.647,0,6.649,0.188,8.245c0.113,1.102,0.338,1.938,1.465,2.089c0.526,0.076,1.353,0.152,1.69,0.152
				c0.226,0,0.3,0.114,0.3,0.228c0,0.19-0.188,0.305-0.601,0.305c-2.066,0-4.433-0.114-4.621-0.114
				c-0.038,0-2.404,0.114-3.531,0.114c-0.413,0-0.601-0.076-0.601-0.305c0-0.113,0.075-0.228,0.301-0.228
				c0.338,0,0.789-0.076,1.127-0.152c0.751-0.151,0.939-0.987,1.089-2.089c0.188-1.596,0.188-4.598,0.188-8.245V13.38z
				 M97.757,16.686c0,0.19,0.075,0.342,0.263,0.456c0.563,0.342,2.292,0.608,3.945,0.608c0.901,0,1.953-0.114,2.817-0.722
				c1.315-0.912,2.292-2.964,2.292-5.851c0-4.75-2.479-7.599-6.499-7.599c-1.127,0-2.142,0.114-2.517,0.228
				c-0.188,0.076-0.301,0.228-0.301,0.456V16.686z"/>
			<path fill="#FFFFFF" d="M126.238,20.143c0,5.585,0.15,8.017,0.826,8.701c0.601,0.608,1.578,0.874,4.508,0.874
				c1.991,0,3.645-0.038,4.546-1.14c0.488-0.608,0.864-1.558,0.977-2.279c0.038-0.305,0.113-0.494,0.338-0.494
				c0.188,0,0.226,0.151,0.226,0.569s-0.263,2.698-0.563,3.8c-0.263,0.874-0.376,1.025-2.366,1.025
				c-2.705,0-4.659-0.075-6.236-0.113c-1.578-0.076-2.742-0.114-3.832-0.114c-0.15,0-0.789,0.038-1.54,0.038
				c-0.752,0.038-1.578,0.076-2.142,0.076c-0.413,0-0.601-0.076-0.601-0.305c0-0.113,0.074-0.228,0.3-0.228
				c0.339,0,0.789-0.076,1.127-0.152c0.752-0.151,0.939-0.987,1.09-2.089c0.188-1.596,0.188-4.598,0.188-8.245V13.38
				c0-5.927,0-6.991-0.075-8.207c-0.075-1.292-0.375-1.899-1.615-2.166c-0.301-0.076-0.939-0.114-1.277-0.114
				c-0.15,0-0.3-0.076-0.3-0.228c0-0.228,0.188-0.304,0.601-0.304c1.69,0,4.058,0.114,4.245,0.114s2.931-0.114,4.058-0.114
				c0.413,0,0.601,0.076,0.601,0.304c0,0.152-0.15,0.228-0.301,0.228c-0.263,0-0.788,0.038-1.239,0.114
				c-1.09,0.19-1.39,0.836-1.465,2.166c-0.075,1.216-0.075,2.28-0.075,8.207V20.143z"/>
			<path fill="#FFFFFF" d="M154.942,1.83c8.453,0,14.765,5.395,14.765,14.248c0,8.511-5.937,15.539-14.99,15.539
				c-10.293,0-14.575-8.093-14.575-14.932C140.141,10.531,144.574,1.83,154.942,1.83z M155.731,30.174
				c3.381,0,10.368-1.976,10.368-13.032c0-9.119-5.484-14.02-11.42-14.02c-6.273,0-10.97,4.18-10.97,12.5
				C143.709,24.475,148.969,30.174,155.731,30.174z"/>
			<path fill="#FFFFFF" d="M185.79,20.067c0,3.647,0,6.649,0.188,8.245c0.113,1.102,0.339,1.938,1.466,2.089
				c0.525,0.076,1.353,0.152,1.69,0.152c0.226,0,0.301,0.114,0.301,0.228c0,0.19-0.188,0.305-0.602,0.305
				c-2.066,0-4.433-0.114-4.621-0.114c-0.188,0-2.554,0.114-3.682,0.114c-0.413,0-0.601-0.076-0.601-0.305
				c0-0.113,0.075-0.228,0.301-0.228c0.338,0,0.789-0.076,1.127-0.152c0.751-0.151,0.939-0.987,1.089-2.089
				c0.188-1.596,0.188-4.598,0.188-8.245V3.996l-5.561,0.076c-2.329,0.038-3.23,0.304-3.831,1.216
				c-0.414,0.646-0.526,0.912-0.639,1.178c-0.113,0.304-0.226,0.38-0.376,0.38c-0.113,0-0.188-0.114-0.188-0.342
				c0-0.38,0.751-3.647,0.826-3.952c0.075-0.228,0.226-0.722,0.376-0.722c0.263,0,0.638,0.38,1.652,0.456
				c1.09,0.114,2.518,0.19,2.968,0.19h14.088c1.202,0,2.066-0.076,2.667-0.19c0.563-0.076,0.901-0.19,1.052-0.19
				c0.188,0,0.188,0.228,0.188,0.456c0,1.14-0.113,3.762-0.113,4.18c0,0.342-0.112,0.494-0.263,0.494
				c-0.188,0-0.263-0.114-0.301-0.646l-0.037-0.418c-0.113-1.14-1.015-2.014-4.621-2.089l-4.733-0.076V20.067z"/>
		</g>
	</g>
	<g>
		<path fill="#FFFFFF" d="M16.526,31.198h3.3v-12.48c0,0-0.276-5.882,2.498-5.882V9.757c0,0-0.094-3.879,3.638-3.879L25.958,0H0
			v5.877c0.184,0,0.358,0.01,0.525,0.025h16.038v1.677L3.169,7.587C3.71,8.629,3.633,9.757,3.633,9.757v2.739h12.963v1.683
			L5.445,14.168c0.838,1.737,0.69,4.55,0.69,4.55v12.48h3.784V18.911c0,0-0.023-0.514-0.588-0.514c-0.609,0-0.626,0.482-0.626,0.482
			H7.417c0,0,0.075-2.028,2.003-2.028c1.927,0,1.785,1.982,1.785,1.982l0.035,12.365h4.001V18.943c0,0-0.011-0.52-0.618-0.52
			c-0.597,0-0.616,0.488-0.616,0.488h-1.312c0,0-0.025-2.039,1.981-2.039c2.009,0,1.848,1.939,1.848,1.939V31.198z"/>
		<g>
			<path fill="#FFFFFF" d="M60.333,26.223c0.15,1.367,0.414,3.495,2.029,4.027c1.089,0.342,2.066,0.342,2.442,0.342
				c0.188,0,0.3,0.038,0.3,0.189c0,0.229-0.338,0.343-0.789,0.343c-0.827,0-4.884-0.038-6.274-0.152
				c-0.864-0.076-1.052-0.19-1.052-0.38c0-0.152,0.075-0.229,0.263-0.266c0.188-0.038,0.225-0.685,0.15-1.368L55.599,9.239h-0.113
				l-9.204,19.757c-0.789,1.672-0.902,2.014-1.24,2.014c-0.263,0-0.451-0.38-1.165-1.748c-0.977-1.861-4.208-8.435-4.396-8.814
				c-0.338-0.684-4.545-9.803-4.959-10.829h-0.15l-1.503,17.629c-0.038,0.608-0.038,1.292-0.038,1.938
				c0,0.57,0.413,1.064,0.977,1.178c0.639,0.152,1.202,0.19,1.428,0.19c0.15,0,0.301,0.076,0.301,0.19
				c0,0.266-0.226,0.342-0.676,0.342c-1.39,0-3.193-0.114-3.494-0.114c-0.338,0-2.142,0.114-3.156,0.114
				c-0.376,0-0.639-0.076-0.639-0.342c0-0.114,0.188-0.19,0.375-0.19c0.301,0,0.563,0,1.127-0.114
				c1.24-0.228,1.353-1.709,1.503-3.153l2.705-24.772c0.038-0.418,0.188-0.684,0.414-0.684c0.225,0,0.375,0.152,0.563,0.57
				l11.496,23.899L56.801,2.438c0.15-0.342,0.301-0.608,0.563-0.608c0.263,0,0.376,0.304,0.451,1.026L60.333,26.223z"/>
			<path fill="#FFFFFF" d="M71.833,13.38c0-5.927,0-6.991-0.075-8.207c-0.075-1.292-0.375-1.899-1.615-2.166
				c-0.301-0.076-0.939-0.114-1.277-0.114c-0.15,0-0.301-0.076-0.301-0.228c0-0.228,0.188-0.304,0.601-0.304
				c0.864,0,1.878,0,2.705,0.038l1.54,0.076c0.263,0,7.739,0,8.603-0.038c0.714-0.038,1.315-0.114,1.615-0.19
				c0.188-0.038,0.338-0.19,0.526-0.19c0.113,0,0.15,0.152,0.15,0.342c0,0.266-0.188,0.722-0.3,1.786
				c-0.038,0.38-0.113,2.052-0.188,2.508c-0.038,0.19-0.113,0.418-0.263,0.418c-0.225,0-0.3-0.19-0.3-0.494
				c0-0.266-0.038-0.912-0.226-1.368c-0.263-0.608-0.639-1.064-2.667-1.292c-0.639-0.076-4.733-0.114-5.147-0.114
				c-0.15,0-0.225,0.114-0.225,0.38V14.71c0,0.266,0.038,0.38,0.225,0.38c0.489,0,5.109,0,5.973-0.076
				c0.902-0.076,1.428-0.152,1.766-0.532c0.263-0.304,0.414-0.494,0.564-0.494c0.112,0,0.188,0.076,0.188,0.304
				s-0.188,0.874-0.3,2.128c-0.075,0.76-0.15,2.166-0.15,2.432c0,0.304,0,0.722-0.263,0.722c-0.188,0-0.263-0.152-0.263-0.342
				c0-0.38,0-0.76-0.15-1.254c-0.15-0.532-0.488-1.178-1.954-1.33c-1.014-0.114-4.733-0.19-5.372-0.19
				c-0.188,0-0.263,0.114-0.263,0.266v3.344c0,1.292-0.038,5.699,0,6.497c0.113,2.621,0.676,3.115,4.357,3.115
				c0.977,0,2.63,0,3.606-0.418c0.977-0.418,1.428-1.178,1.691-2.735c0.075-0.418,0.15-0.57,0.338-0.57
				c0.226,0,0.226,0.305,0.226,0.57c0,0.304-0.301,2.888-0.488,3.686c-0.263,0.987-0.564,0.987-2.029,0.987
				c-2.817,0-4.884-0.075-6.349-0.113c-1.465-0.076-2.367-0.114-2.93-0.114c-0.075,0-0.713,0-1.502,0.038
				c-0.751,0-1.615,0.076-2.179,0.076c-0.413,0-0.601-0.076-0.601-0.305c0-0.113,0.075-0.228,0.301-0.228
				c0.338,0,0.789-0.076,1.127-0.152c0.751-0.151,0.939-0.987,1.089-2.089c0.188-1.596,0.188-4.598,0.188-8.245V13.38z"/>
			<path fill="#FFFFFF" d="M94.752,13.38c0-5.927,0-6.991-0.075-8.207c-0.075-1.292-0.376-1.899-1.616-2.166
				c-0.3-0.076-0.939-0.114-1.277-0.114c-0.15,0-0.3-0.076-0.3-0.228c0-0.228,0.188-0.304,0.601-0.304
				c1.69,0,4.057,0.114,4.245,0.114c0.413,0,3.268-0.114,4.433-0.114c2.367,0,4.883,0.228,6.875,1.672
				c0.939,0.684,2.592,2.545,2.592,5.167c0,2.812-1.165,5.624-4.546,8.777c3.081,3.989,5.635,7.371,7.814,9.727
				c2.029,2.166,3.644,2.584,4.583,2.735c0.714,0.114,1.239,0.114,1.465,0.114c0.188,0,0.338,0.114,0.338,0.228
				c0,0.229-0.225,0.305-0.901,0.305h-2.667c-2.104,0-3.043-0.19-4.02-0.723c-1.615-0.873-2.93-2.735-5.071-5.585
				c-1.578-2.09-3.344-4.635-4.095-5.623c-0.15-0.152-0.263-0.228-0.489-0.228l-4.621-0.076c-0.188,0-0.263,0.114-0.263,0.304v0.912
				c0,3.647,0,6.649,0.188,8.245c0.113,1.102,0.338,1.938,1.465,2.089c0.526,0.076,1.353,0.152,1.69,0.152
				c0.226,0,0.3,0.114,0.3,0.228c0,0.19-0.188,0.305-0.601,0.305c-2.066,0-4.433-0.114-4.621-0.114
				c-0.038,0-2.404,0.114-3.531,0.114c-0.413,0-0.601-0.076-0.601-0.305c0-0.113,0.075-0.228,0.301-0.228
				c0.338,0,0.789-0.076,1.127-0.152c0.751-0.151,0.939-0.987,1.089-2.089c0.188-1.596,0.188-4.598,0.188-8.245V13.38z
				 M97.757,16.686c0,0.19,0.075,0.342,0.263,0.456c0.563,0.342,2.292,0.608,3.945,0.608c0.901,0,1.953-0.114,2.817-0.722
				c1.315-0.912,2.292-2.964,2.292-5.851c0-4.75-2.479-7.599-6.499-7.599c-1.127,0-2.142,0.114-2.517,0.228
				c-0.188,0.076-0.301,0.228-0.301,0.456V16.686z"/>
			<path fill="#FFFFFF" d="M126.238,20.143c0,5.585,0.15,8.017,0.826,8.701c0.601,0.608,1.578,0.874,4.508,0.874
				c1.991,0,3.645-0.038,4.546-1.14c0.488-0.608,0.864-1.558,0.977-2.279c0.038-0.305,0.113-0.494,0.338-0.494
				c0.188,0,0.226,0.151,0.226,0.569s-0.263,2.698-0.563,3.8c-0.263,0.874-0.376,1.025-2.366,1.025
				c-2.705,0-4.659-0.075-6.236-0.113c-1.578-0.076-2.742-0.114-3.832-0.114c-0.15,0-0.789,0.038-1.54,0.038
				c-0.752,0.038-1.578,0.076-2.142,0.076c-0.413,0-0.601-0.076-0.601-0.305c0-0.113,0.074-0.228,0.3-0.228
				c0.339,0,0.789-0.076,1.127-0.152c0.752-0.151,0.939-0.987,1.09-2.089c0.188-1.596,0.188-4.598,0.188-8.245V13.38
				c0-5.927,0-6.991-0.075-8.207c-0.075-1.292-0.375-1.899-1.615-2.166c-0.301-0.076-0.939-0.114-1.277-0.114
				c-0.15,0-0.3-0.076-0.3-0.228c0-0.228,0.188-0.304,0.601-0.304c1.69,0,4.058,0.114,4.245,0.114s2.931-0.114,4.058-0.114
				c0.413,0,0.601,0.076,0.601,0.304c0,0.152-0.15,0.228-0.301,0.228c-0.263,0-0.788,0.038-1.239,0.114
				c-1.09,0.19-1.39,0.836-1.465,2.166c-0.075,1.216-0.075,2.28-0.075,8.207V20.143z"/>
			<path fill="#FFFFFF" d="M154.942,1.83c8.453,0,14.765,5.395,14.765,14.248c0,8.511-5.937,15.539-14.99,15.539
				c-10.293,0-14.575-8.093-14.575-14.932C140.141,10.531,144.574,1.83,154.942,1.83z M155.731,30.174
				c3.381,0,10.368-1.976,10.368-13.032c0-9.119-5.484-14.02-11.42-14.02c-6.273,0-10.97,4.18-10.97,12.5
				C143.709,24.475,148.969,30.174,155.731,30.174z"/>
			<path fill="#FFFFFF" d="M185.79,20.067c0,3.647,0,6.649,0.188,8.245c0.113,1.102,0.339,1.938,1.466,2.089
				c0.525,0.076,1.353,0.152,1.69,0.152c0.226,0,0.301,0.114,0.301,0.228c0,0.19-0.188,0.305-0.602,0.305
				c-2.066,0-4.433-0.114-4.621-0.114c-0.188,0-2.554,0.114-3.682,0.114c-0.413,0-0.601-0.076-0.601-0.305
				c0-0.113,0.075-0.228,0.301-0.228c0.338,0,0.789-0.076,1.127-0.152c0.751-0.151,0.939-0.987,1.089-2.089
				c0.188-1.596,0.188-4.598,0.188-8.245V3.996l-5.561,0.076c-2.329,0.038-3.23,0.304-3.831,1.216
				c-0.414,0.646-0.526,0.912-0.639,1.178c-0.113,0.304-0.226,0.38-0.376,0.38c-0.113,0-0.188-0.114-0.188-0.342
				c0-0.38,0.751-3.647,0.826-3.952c0.075-0.228,0.226-0.722,0.376-0.722c0.263,0,0.638,0.38,1.652,0.456
				c1.09,0.114,2.518,0.19,2.968,0.19h14.088c1.202,0,2.066-0.076,2.667-0.19c0.563-0.076,0.901-0.19,1.052-0.19
				c0.188,0,0.188,0.228,0.188,0.456c0,1.14-0.113,3.762-0.113,4.18c0,0.342-0.112,0.494-0.263,0.494
				c-0.188,0-0.263-0.114-0.301-0.646l-0.037-0.418c-0.113-1.14-1.015-2.014-4.621-2.089l-4.733-0.076V20.067z"/>
		</g>
	</g>
</g>
</svg>
