<?xml version="1.0" encoding="utf-8"?>
<!-- Generator: Adobe Illustrator 16.0.0, SVG Export Plug-In . SVG Version: 6.00 Build 0)  -->
<!DOCTYPE svg PUBLIC "-//W3C//DTD SVG 1.1//EN" "http://www.w3.org/Graphics/SVG/1.1/DTD/svg11.dtd">
<svg version="1.1" id="Layer_1" xmlns="http://www.w3.org/2000/svg" xmlns:xlink="http://www.w3.org/1999/xlink" x="0px" y="0px"
	 width="432px" height="182.302px" viewBox="0 0 432 182.302" enable-background="new 0 0 432 182.302" xml:space="preserve">
<polygon fill="#2F83C2" points="49.639,154.877 24.215,19.845 32.325,9.31 57.75,144.351 "/>
<polygon fill="#2F83C2" points="382.363,154.877 407.787,19.845 399.678,9.31 374.252,144.351 "/>
<path fill="#1E4B88" d="M216,49.259c-88.832,0-159.8-19.064-191.785-29.414l25.423,135.033
	c27.027,10.62,82.963,27.424,166.361,27.424c83.399,0,139.337-16.805,166.363-27.425l25.424-135.032
	C375.802,30.194,304.833,49.259,216,49.259z"/>
<g>
	<path fill="#FEE700" d="M120.786,90.498c2.649,2.615,5.687,4.815,10.005,5.389c3.337,0.443,6.438-0.344,6.863-3.55
		c0.391-2.944-1.883-4.378-5.783-6.095c-7.5-3.192-10.271-6.889-9.403-13.432c0.981-7.394,7.286-10.752,14.483-9.797
		c4.384,0.582,7.442,2.12,9.956,4.251l-1.085,8.179c-2.745-2.895-5.686-4.816-9.546-5.329c-3.337-0.442-5.386,0.95-5.708,3.371
		c-0.365,2.748,1.712,4.156,6.062,5.998c7.491,3.258,10.041,7.125,9.172,13.668c-1.077,8.113-7.966,10.861-15.949,9.802
		c-4.253-0.564-7.892-2.245-10.161-4.211L120.786,90.498z"/>
	<path fill="#FEE700" d="M163.392,97.659l-3.617,8.081l-8.757-0.621l17.917-38.036l10.074,0.714l12.501,40.193l-9.086-0.645
		l-2.44-8.511L163.392,97.659z M173.365,75.537l-6.99,15.518l11.654,0.827L173.365,75.537z"/>
	<path fill="#FEE700" d="M208.144,108.11l-14.49-39.285l8.975,0.052l10.711,30.816l10.936-30.691l8.909,0.052l-14.943,39.115
		L208.144,108.11z"/>
	<path fill="#FEE700" d="M253.76,107.027l-17.338-38.113l8.954-0.608l12.947,29.944l8.649-31.411l8.889-0.604l-12.027,40.107
		L253.76,107.027z"/>
	<path fill="#FEE700" d="M306.431,62.134l9.155-1.248l-10.736,26.31l1.969,14.453l-8.24,1.123l-1.969-14.453l-17.254-22.496
		l9.09-1.238l11.346,15.308L306.431,62.134z"/>
</g>
<g>
	<path fill="#FEE700" d="M73.312,137.448c2.445,2.807,5.309,5.229,9.572,6.124c3.294,0.692,6.445,0.14,7.109-3.025
		c0.61-2.906-1.549-4.506-5.309-6.51c-7.239-3.746-9.726-7.641-8.369-14.1c1.533-7.298,8.071-10.174,15.176-8.682
		c4.328,0.909,7.262,2.672,9.608,4.985l-1.696,8.073c-2.52-3.092-5.309-5.229-9.12-6.028c-3.294-0.692-5.441,0.543-5.943,2.933
		c-0.57,2.713,1.396,4.272,5.595,6.436c7.225,3.811,9.477,7.857,8.121,14.316c-1.682,8.01-8.758,10.232-16.638,8.578
		c-4.198-0.882-7.7-2.832-9.815-4.962L73.312,137.448z"/>
	<path fill="#FEE700" d="M129.772,151.019l-1.143,7.235l-25.097-3.965l6.118-38.721l24.706,3.904l-1.144,7.234l-16.557-2.615
		l-1.339,8.474l15.188,2.4l-1.123,7.104l-15.188-2.399l-1.37,8.67L129.772,151.019z"/>
	<path fill="#FEE700" d="M146.437,152.004l-3.829,7.982l-8.736-0.853l18.915-37.546l10.05,0.98l11.433,40.507l-9.065-0.885
		l-2.214-8.571L146.437,152.004z M156.99,130.155l-7.397,15.326l11.627,1.134L156.99,130.155z"/>
	<path fill="#FEE700" d="M188.62,163.568l-8.312-0.296l1.391-39.05c2.787-0.363,7.548-0.524,11.176-0.395
		c10.158,0.361,16.202,5.002,15.889,13.775c-0.202,5.673-3.578,9.581-7.868,11.344l10.612,15.437l-9.895-0.353l-8.897-13.526
		l-3.628-0.129L188.62,163.568z M189.334,143.516l2.836,0.102c4.75,0.169,7.913-1.502,8.075-6.054
		c0.15-4.222-2.813-6.309-7.629-6.479c-0.792-0.028-2.179-0.012-2.841,0.03L189.334,143.516z"/>
	<path fill="#FEE700" d="M244.587,135.406c-2.563-2.45-6.295-3.949-10.781-3.848c-7.06,0.16-11.561,5.477-11.39,12.998
		c0.175,7.72,5.303,12.62,12.297,12.462c4.486-0.102,7.689-1.494,10.927-4.274l0.196,8.644c-3.579,2.26-7.324,3.07-11.282,3.16
		c-12.272,0.278-20.444-7.854-20.715-19.797c-0.272-12.008,7.854-20.444,19.796-20.714c3.959-0.09,7.54,0.621,10.749,2.396
		L244.587,135.406z"/>
	<path fill="#FEE700" d="M277.507,121.811l8.285-0.732l3.453,39.056l-8.284,0.732l-1.401-15.846l-17.818,1.575l1.401,15.846
		l-8.351,0.738l-3.453-39.056l8.351-0.738l1.4,15.846l17.818-1.575L277.507,121.811z"/>
	<path fill="#FEE700" d="M323.572,147.732l1.085,7.246l-25.131,3.766l-5.811-38.774l24.74-3.707l1.086,7.245l-16.581,2.484
		l1.271,8.486l15.21-2.278l1.066,7.114l-15.21,2.279l1.301,8.682L323.572,147.732z"/>
	<path fill="#FEE700" d="M341.698,151.718l-8.144,1.681l-7.896-38.265c2.621-1.013,7.209-2.296,10.764-3.029
		c9.954-2.054,16.923,1.022,18.697,9.62c1.146,5.559-1.207,10.154-4.957,12.883l13.964,12.483l-9.695,2l-11.846-11.033l-3.555,0.733
		L341.698,151.718z M337.645,132.068l2.779-0.573c4.653-0.96,7.331-3.332,6.411-7.792c-0.854-4.137-4.227-5.463-8.945-4.488
		c-0.775,0.16-2.119,0.504-2.753,0.702L337.645,132.068z"/>
</g>
<path fill="#1E4B88" d="M408.218,7.309l8.109,10.535l-22.971,122.003c4.981-1.686,9.396-3.312,13.22-4.815L432,0"/>
<path fill="#1E4B88" d="M23.782,7.309l-8.109,10.535l22.971,122.003c-4.981-1.686-9.396-3.312-13.22-4.815L0,0"/>
<polygon fill="#FFFFFF" points="353.249,56.022 360.888,66.827 374.12,66.658 366.206,77.264 370.457,89.796 357.924,85.547 
	347.319,93.46 347.489,80.229 336.681,72.587 349.319,68.658 "/>
<polygon fill="#FFFFFF" points="79.752,56.022 72.113,66.827 58.88,66.658 66.794,77.264 62.543,89.796 75.077,85.547 85.681,93.46 
	85.511,80.229 96.32,72.587 83.681,68.658 "/>
</svg>
