<?xml version="1.0" encoding="utf-8"?>
<!-- Generator: Adobe Illustrator 16.0.0, SVG Export Plug-In . SVG Version: 6.00 Build 0)  -->
<!DOCTYPE svg PUBLIC "-//W3C//DTD SVG 1.1//EN" "http://www.w3.org/Graphics/SVG/1.1/DTD/svg11.dtd">
<svg version="1.1" id="Layer_1" xmlns="http://www.w3.org/2000/svg" xmlns:xlink="http://www.w3.org/1999/xlink" x="0px" y="0px"
	 width="517.988px" height="454.905px" viewBox="46.708 92.046 517.988 454.905"
	 enable-background="new 46.708 92.046 517.988 454.905" xml:space="preserve">
<path d="M194.004,107.748c-1.224,0-1.836,0.612-2.448,1.224C72.216,136.512,14.688,282.168,64.872,389.268
	c58.14,124.236,205.632,181.152,334.764,148.716c134.028-33.66,199.513-168.3,146.88-294.984
	C490.212,105.912,325.584,66.132,194.004,107.748z M523.872,399.672C504.9,454.14,452.268,489.636,399.636,506.16
	c-108.936,34.884-236.232-12.24-296.82-108.937C44.676,304.2,88.74,162.828,201.348,138.348c1.836-0.612,3.06-1.224,4.284-1.836
	c112.608-34.272,245.412-6.12,305.388,103.428C537.948,288.288,542.232,347.04,523.872,399.672z"/>
<path d="M230.724,225.864c-8.568,17.748,17.748,33.048,26.316,15.3c12.852-27.54,52.632-25.092,75.888-13.464
	c40.393,20.196,11.628,56.304-11.016,74.052c-25.092,18.972-41.616,45.9-28.152,77.112c7.956,17.749,34.272,2.448,26.316-15.3
	c-11.017-24.48,45.899-55.08,57.528-75.276c12.852-22.032,4.283-50.796-10.404-69.768C336.6,178.74,253.368,177.516,230.724,225.864
	z"/>
<path d="M306.612,418.644c-19.584,0-19.584,30.601,0,30.601C326.196,449.244,326.196,418.644,306.612,418.644z"/>
</svg>
