<?xml version="1.0" encoding="utf-8"?>
<!-- Generator: Adobe Illustrator 21.0.2, SVG Export Plug-In . SVG Version: 6.00 Build 0)  -->
<svg version="1.1"
	 id="Layer_1" xmlns:cc="http://creativecommons.org/ns#" xmlns:dc="http://purl.org/dc/elements/1.1/" xmlns:inkscape="http://www.inkscape.org/namespaces/inkscape" xmlns:rdf="http://www.w3.org/1999/02/22-rdf-syntax-ns#" xmlns:sodipodi="http://sodipodi.sourceforge.net/DTD/sodipodi-0.dtd" xmlns:svg="http://www.w3.org/2000/svg"
	 xmlns="http://www.w3.org/2000/svg" xmlns:xlink="http://www.w3.org/1999/xlink" x="0px" y="0px" viewBox="0 0 100 125"
	 style="enable-background:new 0 0 100 125;" xml:space="preserve">
<style type="text/css">
	.st0{fill:#FFFFFF;}
</style>
<g transform="translate(0,-952.36218)">
	<path class="st0" d="M49.9,970.4c-0.4,0-0.8,0.1-1.2,0.4l-38,30c-0.9,0.7-1,2-0.3,2.8c0.6,0.8,2,1,2.8,0.3l36.8-29l36.8,29
		c0.8,0.7,2.2,0.5,2.8-0.3c0.6-0.8,0.6-2.2-0.3-2.8L75,989.5v-17.2c0-1.1-0.9-2-2-2h-8c-1.1,0-2,0.9-2,2v7.7l-11.8-9.3
		C50.8,970.5,50.4,970.4,49.9,970.4z M67,974.4h4v12l-4-3.2V974.4z M25,997.3l-4,3.2v31.9c0,1.1,0.9,2,2,2h19c1.1,0,2-0.9,2-2v-18
		h12v18c0,1.1,0.9,2,2,2h19c1.1,0,2-0.9,2-2v-31.9l-4-3.2v33.1H60v-18c0-1.1-0.9-2-2-2H42c-1.1,0-2,0.9-2,2v18H25V997.3z"/>
</g>
</svg>
