<?xml version="1.0" encoding="utf-8"?>
<!-- Generator: Adobe Illustrator 16.0.0, SVG Export Plug-In . SVG Version: 6.00 Build 0)  -->
<!DOCTYPE svg PUBLIC "-//W3C//DTD SVG 1.1//EN" "http://www.w3.org/Graphics/SVG/1.1/DTD/svg11.dtd">
<svg version="1.1" id="Layer_1" xmlns="http://www.w3.org/2000/svg" xmlns:xlink="http://www.w3.org/1999/xlink" x="0px" y="0px"
	 width="435.709px" height="589.26px" viewBox="-141.852 -66.127 435.709 589.26"
	 enable-background="new -141.852 -66.127 435.709 589.26" xml:space="preserve">
<g>
	<path d="M293.092,417.984c-2.004-17.768-7.694-34.561-14.769-50.944c-14.372-33.283-33.667-63.896-54.616-93.623
		c-8.399-11.91-17.116-23.605-26.255-35.005c-1.574-1.971-2.583-2.522-4.54-0.02c-16.827,21.635-32.981,43.708-47.514,66.862
		c-17.311,27.641-32.779,56.123-42.544,87.187c-7.412,23.545-8.743,47.016,0.625,70.455c16.746,41.945,61.67,66.304,108.808,58.927
		c46.525-7.284,82.344-48.456,81.557-93.596C293.596,424.804,293.489,421.381,293.092,417.984z M163.482,460.152
		c-2.71,4.385-8.191,7.337-13.619,6.188c-7.97-1.299-13.659-6.289-17.23-12.227c-9.463-15.737-9.725-32.113-5.515-50.245
		c3.632-15.636,9.92-30.102,16.666-44.414c0.154-0.343,0.443-0.619,1.23-1.668c-2.044,10.881-3.645,20.909-3.45,31.178
		c0.336,17.729,5.508,33.821,14.809,48.557c1.93,3.061,4.001,6.026,5.958,9.072C165.083,450.878,166.435,455.344,163.482,460.152z"
		/>
	<path d="M126.896,142.403h24.723v35.771h87.966V98.42c0-24.292-19.691-43.99-43.983-43.99h-68.706
		C115.215,36.433,96.593,23.366,74.81,19.042V-3.798c5.622-3.06,10.256-7.7,13.323-13.323h25.375c8.75,0,15.831-7.088,15.831-15.831
		c0-8.743-7.088-15.832-15.831-15.832H88.132c-5.623-10.33-16.571-17.344-29.161-17.344c-12.583,0-23.539,7.007-29.154,17.344H4.43
		c-8.743,0-15.832,7.088-15.832,15.832c0,8.743,7.095,15.831,15.832,15.831h25.388c3.053,5.623,7.701,10.263,13.316,13.323v22.839
		C21.351,23.366,2.728,36.433-8.954,54.43h-66.493v87.973h66.493c14.426,22.234,39.444,36.949,67.925,36.949
		C87.446,179.352,112.471,164.63,126.896,142.403z"/>
	<path d="M153.132,192.836c-8.743,0-15.831,7.088-15.831,15.831c0,8.743,7.095,15.832,15.831,15.832h84.456
		c8.75,0,15.832-7.088,15.832-15.832c0-8.743-7.088-15.831-15.832-15.831H153.132z"/>
	<path d="M-105.643,25.895h-36.209v145.844h36.209c6.907,0,12.516-5.602,12.516-12.516V38.417
		C-93.121,31.497-98.729,25.895-105.643,25.895z"/>
</g>
</svg>
