<?xml version="1.0" encoding="utf-8"?>
<!-- Generator: Adobe Illustrator 16.0.4, SVG Export Plug-In . SVG Version: 6.00 Build 0)  -->
<!DOCTYPE svg PUBLIC "-//W3C//DTD SVG 1.1//EN" "http://www.w3.org/Graphics/SVG/1.1/DTD/svg11.dtd">
<svg version="1.1" id="Layer_1" xmlns="http://www.w3.org/2000/svg" xmlns:xlink="http://www.w3.org/1999/xlink" x="0px" y="0px"
	 width="612px" height="792px" viewBox="0 0 612 792" enable-background="new 0 0 612 792" xml:space="preserve">
<path fill="#4AC8F5" d="M56.291,414.137c-4.303-0.638-6.949-1.339-6.949-1.339l3.315-12.335c0.159,0.063,2.231,0.573,5.514,1.083
	L56.291,414.137z"/>
<path fill="#4AC8F5" d="M70.093,415.062l-0.16-12.75c4.017-0.032,7.937-0.446,11.539-1.213l2.614,12.495
	C79.656,414.52,74.938,414.997,70.093,415.062z M97.761,408.973l-5.61-11.441c3.347-1.658,6.343-3.729,8.957-6.184l8.766,9.244
	C106.335,403.905,102.255,406.742,97.761,408.973z M118.894,389.02l-11.092-6.343c1.785-3.092,3.251-6.63,4.399-10.455l12.24,3.634
	C123.006,380.636,121.157,385.067,118.894,389.02z M500.183,385.481c-1.529-3.761-3.124-7.905-4.686-12.304l12.017-4.271
	c1.498,4.208,2.996,8.16,4.463,11.794L500.183,385.481z M127.978,363.71l-12.081-4.048c1.466-4.431,3.124-8.606,4.909-12.559
	l11.634,5.228C130.815,355.901,129.317,359.726,127.978,363.71z M491.258,360.906c-1.339-4.112-2.678-8.256-3.983-12.399
	l12.176-3.761c1.274,4.016,2.582,8.096,3.921,12.144L491.258,360.906z M332.584,355.774l-4.304-12.017
	c3.22-1.147,6.98-2.837,11.125-4.877l5.642,11.411C340.394,352.586,336.186,354.467,332.584,355.774z M315.148,355.487
	c-2.455-1.339-6.759-2.805-10.935-4.176l4.048-12.112c5.771,1.944,9.818,3.347,13.037,5.1L315.148,355.487z M291.848,347.008
	c-3.857-1.435-8.001-3.124-12.304-5.1l5.355-11.571c4.016,1.849,7.841,3.411,11.411,4.75L291.848,347.008z M356.713,344.235
	l-6.088-11.188c3.602-1.976,7.363-4.048,11.156-6.216l6.278,11.093C364.204,340.091,360.379,342.259,356.713,344.235z
	 M137.987,341.494l-11.029-6.407c2.391-4.08,4.877-7.873,7.427-11.348l10.264,7.555
	C142.354,334.417,140.123,337.796,137.987,341.494z M483.48,336.139l-3.635-12.399l12.239-3.57l3.634,12.335L483.48,336.139z
	 M267.591,335.692c-3.666-2.167-7.459-4.59-11.284-7.331l7.427-10.359c3.474,2.518,6.917,4.717,10.264,6.662L267.591,335.692z
	 M379.28,331.517l-6.343-11.061l11.252-6.375l6.278,11.093L379.28,331.517z M152.362,321.922l-9.339-8.67
	c3.156-3.379,6.502-6.566,9.945-9.435l8.128,9.817C158.259,316.025,155.295,318.767,152.362,321.922z M245.756,319.978
	c-1.211-1.052-2.422-2.136-3.602-3.251c-1.976-1.817-3.92-3.475-5.833-5.004l7.873-10.009c2.167,1.721,4.399,3.602,6.662,5.706
	c1.083,1.02,2.167,2.008,3.251,2.964L245.756,319.978z M401.625,318.99l-6.057-11.22c4.366-2.359,8.352-4.399,11.922-5.993
	l5.259,11.603C409.435,314.878,405.673,316.822,401.625,318.99z M476.436,312.615c-1.242-2.455-3.282-4.271-6.246-5.61l5.228-11.634
	c5.609,2.55,9.785,6.375,12.367,11.411L476.436,312.615z M423.905,309.428l-3.348-12.304c4.018-1.083,8.415-2.135,12.975-3.028
	l2.422,12.495C431.715,307.451,427.635,308.408,423.905,309.428z M170.723,306.909l-6.312-11.092
	c3.57-2.008,8.798-4.526,13.515-4.973l2.582,12.527l-1.435,0.191C177.671,303.69,174.707,304.646,170.723,306.909z M226.536,305.252
	c-3.475-1.881-7.044-3.283-10.551-4.239l3.315-12.304c4.463,1.211,8.925,2.996,13.26,5.323L226.536,305.252z M448.035,304.837
	l-1.147-12.686c2.868-0.255,5.802-0.319,8.479-0.383c1.849,0,3.697,0.064,5.45,0.191l-0.956,12.718
	c-1.529-0.127-3.123-0.096-4.653-0.16C452.848,304.487,450.457,304.614,448.035,304.837z M193.386,300.63l-2.455-12.527
	c4.877-0.924,9.116-1.371,13.388-1.371l0.637,6.375l-0.191,6.375C200.876,299.451,197.402,299.833,193.386,300.63z"/>
<path fill="#4AC8F5" d="M510.797,404.766c-1.53-1.498-3.06-3.666-4.686-6.565l11.124-6.248c1.401,2.519,2.264,3.475,2.582,3.793
	L510.797,404.766z"/>
<path fill="#4AC8F5" d="M535.755,385.641l-9.021-9.021l-15.65,15.683l-15.683-15.683l-9.054,9.021l15.715,15.683l-15.715,15.683
	l9.054,9.021l15.683-15.684l15.65,15.684l9.021-9.021l-15.683-15.683L535.755,385.641z"/>
</svg>
