<?xml version="1.0" encoding="utf-8"?>
<!-- Generator: Adobe Illustrator 16.0.4, SVG Export Plug-In . SVG Version: 6.00 Build 0)  -->
<!DOCTYPE svg PUBLIC "-//W3C//DTD SVG 1.1//EN" "http://www.w3.org/Graphics/SVG/1.1/DTD/svg11.dtd">
<svg version="1.1" id="Layer_1" xmlns="http://www.w3.org/2000/svg" xmlns:xlink="http://www.w3.org/1999/xlink" x="0px" y="0px"
	 width="612px" height="792px" viewBox="0 0 612 792" enable-background="new 0 0 612 792" xml:space="preserve">
<g>
	<path d="M62.473,488.191c-1.806,0-3.605-0.587-5.08-1.695c-2.093-1.578-3.305-4.063-3.305-6.683V147.43
		c0-3.146,1.732-5.992,4.486-7.43c1.928-1.016,48.238-24.792,121.335-24.792c42.736,0,85.87,8.189,128.123,24.401
		c3.237,1.249,5.367,4.357,5.367,7.827v332.383c0,2.681-1.273,5.202-3.439,6.775c-2.167,1.566-4.976,1.995-7.467,1.205
		c-0.526-0.153-50.435-15.753-119.995-15.753c-40.937,0-80.564,5.343-117.767,15.851C63.979,488.1,63.226,488.191,62.473,488.191z
		 M70.857,152.773v316.128c35.533-9.039,73.03-13.617,111.641-13.617c53.611,0,95.3,8.703,114.132,13.482V153.232
		c-38.581-14.113-77.847-21.255-116.721-21.255C123.747,131.977,83.789,147.105,70.857,152.773z"/>
</g>
<g>
	<path d="M547.6,488.191c-0.79,0-1.543-0.098-2.295-0.3c-37.167-10.508-76.801-15.851-117.768-15.851
		c-69.756,0-119.469,15.6-119.964,15.753c-2.552,0.789-5.337,0.361-7.503-1.206c-2.161-1.578-3.439-4.1-3.439-6.774V147.43
		c0-3.47,2.16-6.579,5.404-7.828c42.246-16.212,85.344-24.4,128.086-24.4c73.097,0,119.407,23.776,121.335,24.792
		c2.784,1.438,4.522,4.29,4.522,7.43v332.384c0,2.619-1.249,5.104-3.342,6.683C551.167,487.61,549.398,488.191,547.6,488.191z
		 M427.531,455.291c38.617,0,76.145,4.577,111.678,13.616V152.773c-12.932-5.667-52.92-20.796-109.089-20.796
		c-38.875,0-78.11,7.142-116.721,21.255v315.541C332.267,463.987,373.926,455.291,427.531,455.291z"/>
</g>
<g>
	<path d="M582.569,523.792H29.431c-4.621,0-8.384-3.728-8.384-8.379V170.258c0-4.615,3.764-8.385,8.384-8.385h33.042
		c4.614,0,8.384,3.764,8.384,8.385c0,4.651-3.77,8.384-8.384,8.384H37.815v328.387H574.19V186.996H547.6
		c-4.651,0-8.385-3.77-8.385-8.385c0-4.651,3.733-8.384,8.385-8.384h34.976c4.651,0,8.384,3.733,8.384,8.384v336.802
		C590.959,520.059,587.22,523.792,582.569,523.792z"/>
</g>
<g>
	<path d="M305.021,523.792c-4.621,0-8.385-3.728-8.385-8.379v-35.594c0-4.627,3.764-8.391,8.385-8.391
		c4.651,0,8.378,3.764,8.378,8.391v35.594C313.399,520.059,309.672,523.792,305.021,523.792z"/>
</g>
<g>
	<path d="M252.125,202.651c-0.985,0-1.995-0.166-2.98-0.52c-57.308-21.781-125.827-0.098-126.476,0.128
		c-4.425,1.408-9.137-1.016-10.582-5.404c-1.408-4.388,0.979-9.138,5.404-10.545c3.042-0.979,74.731-23.678,137.614,0.128
		c4.321,1.64,6.481,6.487,4.847,10.808C258.68,200.588,255.498,202.651,252.125,202.651z"/>
</g>
<g>
	<path d="M252.125,278.27c-0.985,0-1.995-0.196-2.98-0.557c-57.308-21.781-125.827-0.098-126.476,0.128
		c-4.425,1.438-9.137-0.985-10.582-5.367c-1.408-4.425,0.979-9.137,5.404-10.582c3.042-0.949,74.731-23.678,137.614,0.128
		c4.321,1.665,6.481,6.487,4.847,10.838C258.68,276.207,255.498,278.27,252.125,278.27z"/>
</g>
<g>
	<path d="M252.125,353.852c-0.985,0-1.995-0.153-2.98-0.526c-57.308-21.806-125.827-0.098-126.476,0.128
		c-4.425,1.444-9.137-1.016-10.582-5.404c-1.408-4.388,0.979-9.131,5.404-10.545c3.042-0.979,74.731-23.678,137.614,0.129
		c4.321,1.64,6.481,6.481,4.847,10.808C258.68,351.795,255.498,353.852,252.125,353.852z"/>
</g>
<g>
	<path d="M252.125,429.482c-0.985,0-1.995-0.202-2.98-0.562c-57.308-21.781-125.827-0.074-126.476,0.128
		c-4.425,1.433-9.137-0.979-10.582-5.367c-1.408-4.425,0.979-9.144,5.404-10.581c3.042-0.955,74.731-23.679,137.614,0.128
		c4.321,1.659,6.481,6.481,4.847,10.833C258.68,427.414,255.498,429.482,252.125,429.482z"/>
</g>
<g>
	<path d="M252.125,391.648c-0.985,0-1.995-0.165-2.98-0.526c-57.308-21.781-125.827-0.098-126.476,0.128
		c-4.425,1.408-9.137-1.016-10.582-5.404c-1.408-4.388,0.979-9.131,5.404-10.544c3.042-0.979,74.731-23.678,137.614,0.128
		c4.321,1.64,6.481,6.481,4.847,10.808C258.68,389.58,255.498,391.648,252.125,391.648z"/>
</g>
<g>
	<path d="M252.125,316.061c-0.985,0-1.995-0.165-2.98-0.526c-57.308-21.781-125.827-0.098-126.476,0.128
		c-4.425,1.438-9.137-1.016-10.582-5.404c-1.408-4.388,0.979-9.137,5.404-10.545c3.042-0.985,74.731-23.715,137.614,0.129
		c4.321,1.64,6.481,6.487,4.847,10.808C258.68,313.998,255.498,316.061,252.125,316.061z"/>
</g>
<g>
	<path d="M252.125,240.442c-0.985,0-1.995-0.166-2.98-0.52c-57.308-21.812-125.827-0.098-126.476,0.128
		c-4.425,1.438-9.137-1.016-10.582-5.404c-1.408-4.388,0.979-9.138,5.404-10.545c3.042-0.985,74.731-23.715,137.614,0.128
		c4.321,1.64,6.481,6.487,4.847,10.808C258.68,238.379,255.498,240.442,252.125,240.442z"/>
</g>
<g>
	<path d="M492.312,202.651c-0.979,0-1.995-0.166-2.98-0.52c-57.277-21.781-125.791-0.098-126.477,0.128
		c-4.425,1.408-9.106-1.016-10.551-5.404c-1.438-4.388,0.985-9.138,5.374-10.545c3.047-0.979,74.768-23.678,137.614,0.128
		c4.32,1.64,6.512,6.487,4.877,10.808C498.902,200.588,495.689,202.651,492.312,202.651z"/>
</g>
<g>
	<path d="M492.312,278.27c-0.979,0-1.995-0.196-2.98-0.557c-57.277-21.781-125.791-0.098-126.477,0.128
		c-4.425,1.438-9.106-0.985-10.551-5.367c-1.438-4.425,0.985-9.137,5.374-10.582c3.047-0.949,74.768-23.678,137.614,0.128
		c4.32,1.665,6.512,6.487,4.877,10.838C498.902,276.207,495.689,278.27,492.312,278.27z"/>
</g>
<g>
	<path d="M492.312,353.852c-0.979,0-1.995-0.153-2.98-0.526c-57.277-21.806-125.791-0.098-126.477,0.128
		c-4.425,1.444-9.106-1.016-10.551-5.404s0.985-9.131,5.374-10.545c3.047-0.979,74.768-23.678,137.614,0.129
		c4.32,1.64,6.512,6.481,4.877,10.808C498.902,351.795,495.689,353.852,492.312,353.852z"/>
</g>
<g>
	<path d="M492.312,429.482c-0.979,0-1.995-0.202-2.98-0.562c-57.277-21.781-125.791-0.074-126.477,0.128
		c-4.425,1.433-9.106-0.979-10.551-5.367c-1.438-4.425,0.985-9.144,5.374-10.581c3.047-0.955,74.768-23.679,137.614,0.128
		c4.32,1.659,6.512,6.481,4.877,10.833C498.902,427.414,495.689,429.482,492.312,429.482z"/>
</g>
<g>
	<path d="M492.312,391.648c-0.979,0-1.995-0.165-2.98-0.526c-57.277-21.781-125.791-0.098-126.477,0.128
		c-4.425,1.408-9.106-1.016-10.551-5.404c-1.444-4.388,0.985-9.131,5.374-10.544c3.047-0.979,74.768-23.678,137.614,0.128
		c4.32,1.64,6.512,6.481,4.877,10.808C498.902,389.58,495.689,391.648,492.312,391.648z"/>
</g>
<g>
	<path d="M492.312,316.061c-0.979,0-1.995-0.165-2.98-0.526c-57.277-21.781-125.791-0.098-126.477,0.128
		c-4.425,1.438-9.106-1.016-10.551-5.404c-1.438-4.388,0.985-9.137,5.374-10.545c3.047-0.985,74.768-23.715,137.614,0.129
		c4.32,1.64,6.512,6.487,4.877,10.808C498.902,313.998,495.689,316.061,492.312,316.061z"/>
</g>
<g>
	<path d="M492.312,240.442c-0.979,0-1.995-0.166-2.98-0.52c-57.277-21.812-125.791-0.098-126.477,0.128
		c-4.425,1.438-9.106-1.016-10.551-5.404c-1.438-4.388,0.985-9.138,5.374-10.545c3.047-0.985,74.768-23.715,137.614,0.128
		c4.32,1.64,6.512,6.487,4.877,10.808C498.902,238.379,495.689,240.442,492.312,240.442z"/>
</g>
</svg>
