<?xml version="1.0" encoding="utf-8"?>
<!-- Generator: Adobe Illustrator 16.0.4, SVG Export Plug-In . SVG Version: 6.00 Build 0)  -->
<!DOCTYPE svg PUBLIC "-//W3C//DTD SVG 1.1//EN" "http://www.w3.org/Graphics/SVG/1.1/DTD/svg11.dtd">
<svg version="1.1" id="Layer_1" xmlns="http://www.w3.org/2000/svg" xmlns:xlink="http://www.w3.org/1999/xlink" x="0px" y="0px"
	 width="612px" height="792px" viewBox="0 0 612 792" enable-background="new 0 0 612 792" xml:space="preserve">
<g>
	<rect x="122.142" y="356.436" fill="#FFFFFF" width="171.978" height="27.162"/>
	<rect x="122.142" y="410.747" fill="#FFFFFF" width="104.096" height="27.162"/>
	<rect x="239.815" y="410.747" fill="#FFFFFF" width="81.46" height="27.162"/>
	<rect x="122.142" y="465.058" fill="#FFFFFF" width="40.727" height="27.162"/>
	<rect x="171.927" y="465.058" fill="#FFFFFF" width="63.363" height="27.162"/>
	<rect x="122.142" y="519.369" fill="#FFFFFF" width="63.363" height="27.162"/>
	<rect x="194.563" y="519.369" fill="#FFFFFF" width="90.512" height="27.162"/>
</g>
<rect x="354.904" y="96.21" fill="#FFFFFF" width="171.978" height="27.155"/>
<rect x="354.904" y="150.521" fill="#FFFFFF" width="63.356" height="27.155"/>
<rect x="431.845" y="150.521" fill="#FFFFFF" width="72.415" height="27.155"/>
<rect x="354.904" y="204.832" fill="#FFFFFF" width="40.733" height="27.156"/>
<rect x="404.689" y="204.832" fill="#FFFFFF" width="63.355" height="27.156"/>
<rect x="477.098" y="204.832" fill="#FFFFFF" width="63.362" height="27.156"/>
<rect x="354.904" y="259.143" fill="#FFFFFF" width="63.356" height="27.148"/>
<rect x="427.312" y="259.143" fill="#FFFFFF" width="90.511" height="27.148"/>
<path fill="#FFFFFF" d="M45.208,1.173v633.606h534.037V1.173H45.208z M552.083,607.617H72.357V28.328h479.726V607.617z"/>
<rect x="354.904" y="327.035" fill="#FFFFFF" width="164.064" height="241.465"/>
<rect x="122.142" y="136.94" fill="#FFFFFF" width="171.978" height="27.162"/>
<rect x="122.142" y="191.251" fill="#FFFFFF" width="104.097" height="27.162"/>
<rect x="239.815" y="191.251" fill="#FFFFFF" width="81.46" height="27.162"/>
<rect x="122.142" y="245.562" fill="#FFFFFF" width="40.727" height="27.162"/>
<rect x="171.927" y="245.562" fill="#FFFFFF" width="63.362" height="27.162"/>
<rect x="122.142" y="299.873" fill="#FFFFFF" width="63.362" height="27.162"/>
<rect x="194.562" y="299.873" fill="#FFFFFF" width="90.512" height="27.162"/>
<rect x="122.142" y="87.251" fill="#FFFFFF" width="104.097" height="27.162"/>
<rect x="239.815" y="87.251" fill="#FFFFFF" width="81.46" height="27.162"/>
</svg>
