<?xml version="1.0" encoding="utf-8"?>
<!-- Generator: Adobe Illustrator 16.0.0, SVG Export Plug-In . SVG Version: 6.00 Build 0)  -->
<!DOCTYPE svg PUBLIC "-//W3C//DTD SVG 1.1//EN" "http://www.w3.org/Graphics/SVG/1.1/DTD/svg11.dtd">
<svg version="1.1"
	 id="svg2443" sodipodi:version="0.32" inkscape:output_extension="org.inkscape.output.svg.inkscape" inkscape:version="0.48.0 r9654" sodipodi:docname="laptop.svg" xmlns:inkscape="http://www.inkscape.org/namespaces/inkscape" xmlns:rdf="http://www.w3.org/1999/02/22-rdf-syntax-ns#" xmlns:cc="http://creativecommons.org/ns#" xmlns:dc="http://purl.org/dc/elements/1.1/" xmlns:sodipodi="http://sodipodi.sourceforge.net/DTD/sodipodi-0.dtd" xmlns:svg="http://www.w3.org/2000/svg" xmlns:ns1="http://sozi.baierouge.fr"
	 xmlns="http://www.w3.org/2000/svg" xmlns:xlink="http://www.w3.org/1999/xlink" x="0px" y="0px" width="538.89px"
	 height="501.757px" viewBox="0.585 81.046 538.89 501.757" enable-background="new 0.585 81.046 538.89 501.757"
	 xml:space="preserve">
<title  id="title3834">ordinateur portable</title>
<sodipodi:namedview  inkscape:window-maximized="0" fit-margin-right="0" inkscape:current-layer="g2452" inkscape:window-x="31" inkscape:window-y="6" fit-margin-bottom="0" inkscape:window-width="1618" inkscape:pageopacity="0.0" inkscape:pageshadow="2" inkscape:window-height="999" fit-margin-left="0" inkscape:zoom="0.72283115" borderopacity="1.0" inkscape:cx="141.17033" inkscape:cy="93.377398" showgrid="false" bordercolor="#666666" guidetolerance="10.0" objecttolerance="10.0" pagecolor="#ffffff" gridtolerance="10.0" fit-margin-top="0" id="base">
	</sodipodi:namedview>
<g id="g3823">
	
		<path id="path3009" sodipodi:nodetypes="ccccccc" inkscape:connector-curvature="0" fill="#FFFFFF" stroke="#333333" stroke-width="2" stroke-linecap="round" stroke-linejoin="round" d="
		M89.765,82.046c-6.198,0.996-11.36,0.521-10.796,16.13l0.974,290.018l388.48,9.911l-0.531-295.682
		c0.814-12.658-1.639-19.062-11.896-18.96L89.765,82.046z"/>
	
		<path id="path3781" sodipodi:nodetypes="ccccccc" inkscape:connector-curvature="0" fill="#FFFFFF" stroke="#333333" stroke-width="1.6" stroke-linecap="round" stroke-linejoin="round" d="
		M1.385,541.508l0.35,23.149c-0.725,12.094,4.321,15.795,10,17.347l514.829-1.094c6.607-0.016,12.775-6.672,12.054-18.824
		l-0.175-22.913L1.385,541.508z"/>
	
		<path id="path3779" sodipodi:nodetypes="ccccccc" inkscape:connector-curvature="0" fill="#FFFFFF" stroke="#333333" stroke-width="1.6" stroke-linecap="round" stroke-linejoin="round" d="
		M80.356,382.413L2.196,539.037c-1.199,4.66,0.143,9.388,6.026,9.304l520.388-0.443c8.866,0.642,12.086-4.737,7.975-13.03
		l-67.881-152.312L80.356,382.413z"/>
	
		<path id="path3783" sodipodi:nodetypes="ccccccccc" inkscape:connector-curvature="0" fill="#FFFFFF" stroke="#333333" stroke-width="0.8" stroke-linecap="round" stroke-linejoin="round" d="
		M105.435,401.925c-4.712-0.375-7.401,5.916-9.43,10.249L69.109,472.96c-3.809,7.73,2.239,9.327,7.068,9.435l394.795-0.105
		c5.743,0.149,8.287-5.658,4.67-11.92l-25.21-60.365c-1.565-3.485-3.71-6.854-7.444-6.815L105.435,401.925z"/>
	
		<path id="path3785" sodipodi:nodetypes="ccccccccc" inkscape:connector-curvature="0" fill="#FFFFFF" stroke="#333333" stroke-width="0.8" stroke-linecap="round" stroke-linejoin="round" d="
		M226.371,495.847l-12.73,32.3c-1.961,4.711-0.091,8.801,3.923,8.546l104.848-0.332c3.274,0.44,6.254-5.028,4.588-9.449
		l-11.182-30.551c-1.112-3.594-3.028-4.793-5.128-4.707l-78.109,0.886c-3.971-0.215-4.915,1.389-6.205,3.31L226.371,495.847z"/>
	
		<path id="path3787" sodipodi:nodetypes="ccccc" inkscape:connector-curvature="0" fill="#FFFFFF" stroke="#333333" stroke-width="0.8163" stroke-linecap="round" stroke-linejoin="round" d="
		M87.808,104.424l0.29,267.954h369.347l0.917-268.044L87.808,104.424z"/>
	
		<path id="path3789" sodipodi:rx="8.3006935" sodipodi:ry="7.6089692" sodipodi:type="arc" sodipodi:cy="-38.567585" sodipodi:cx="251.7877" fill="#FFFFFF" stroke="#333333" stroke-linecap="round" stroke-linejoin="round" d="
		M276.991,94.183c0,2.68-1.959,4.853-4.378,4.853c-2.417,0-4.377-2.172-4.377-4.853c0-2.681,1.96-4.854,4.377-4.854
		C275.032,89.329,276.991,91.501,276.991,94.183z"/>
</g>
</svg>
