<?xml version="1.0" encoding="utf-8"?>
<!-- Generator: Adobe Illustrator 16.0.0, SVG Export Plug-In . SVG Version: 6.00 Build 0)  -->
<!DOCTYPE svg PUBLIC "-//W3C//DTD SVG 1.1//EN" "http://www.w3.org/Graphics/SVG/1.1/DTD/svg11.dtd">
<svg version="1.1" id="Layer_1" xmlns="http://www.w3.org/2000/svg" xmlns:xlink="http://www.w3.org/1999/xlink" x="0px" y="0px"
	 width="534.677px" height="547.359px" viewBox="30.6 45.987 534.677 547.359" enable-background="new 30.6 45.987 534.677 547.359"
	 xml:space="preserve">
<path d="M456.802,146.684c1.52-0.123,2.951-0.251,4.211-0.38c16.021-1.726,46.947-0.275,46.947-0.275s-14.217-5.875-35.771-6.658
	c-10.43-0.379-26.102,1.763-39.521,4.07c-28.68-1.934-88.881-1.934-88.881-1.934s93.91-31.304,142.283-36.524
	c48.379-5.221,79.205,13.287,79.205,13.287s0.477-6.646-11.861-23.244c-12.324-16.604-45.055-27.98-72.559-33.201
	c-27.51-5.221-57.447-3.079-57.447-3.079s-5.338-5.336-57.627-4.271c-52.283,1.059-22.404,9.602-55.479-1.065
	c-33.084-10.673-80.037-11.745-152.608,9.602C85.135,84.357,30.992,152.645,30.992,152.645L30.6,593.346l13.746-2.992
	c0,0,83.244-19.848,130.203-71.973c46.965-52.129,70.582-141.151,76.274-168.672c5.691-27.504,0.477-45.049,30.826-62.119
	c30.36-17.081,59.769-80.159,77.784-89.167c18.018-9.008,20.398-13.28,94.855-10.435c74.469,2.852,93.918-11.377,93.918-11.377
	s-17.082-9.963-35.1-16.132C498.853,155.606,476.062,150.166,456.802,146.684z M258.649,129.413
	c-7.858,0-14.223-6.377-14.223-14.235c0-7.858,6.365-14.217,14.223-14.217s14.229,6.358,14.229,14.217
	C272.878,123.036,266.508,129.413,258.649,129.413z"/>
</svg>
