<?xml version="1.0" encoding="utf-8"?>
<!-- Generator: Adobe Illustrator 16.0.0, SVG Export Plug-In . SVG Version: 6.00 Build 0)  -->
<!DOCTYPE svg PUBLIC "-//W3C//DTD SVG 1.1//EN" "http://www.w3.org/Graphics/SVG/1.1/DTD/svg11.dtd">
<svg version="1.1" id="Layer_1" xmlns="http://www.w3.org/2000/svg" xmlns:xlink="http://www.w3.org/1999/xlink" x="0px" y="0px"
	 width="432px" height="432px" viewBox="0 0 432 432" enable-background="new 0 0 432 432" xml:space="preserve">
<g>
	<polygon fill="#FFE600" points="76.557,319.995 23.845,40.02 216,5.082 408.155,40.02 355.443,319.995 216,425.726 	"/>
	<path fill="#2F83C2" d="M216,10.164l186.311,33.875l-51.425,273.137L216,419.45L81.114,317.176L29.689,44.039L216,10.164 M216,0
		L18,36l54,286.814L216,432l144-109.186L414,36L216,0L216,0z"/>
</g>
<g>
	<path fill-rule="evenodd" clip-rule="evenodd" fill="#FFFFFF" d="M214.709,186.764c-10.413,0-19.845-5.126-24.031-13.058
		c-4.737-8.981-1.79-22.368,0.839-31.656c1.335-4.798,12.941-4.937,14.26-4.937c0.199,0,0.394,0.001,0.584,0.005
		c8.497,0.159,13.559,1.577,15.047,4.212c2.536,5.245,3.094,11.064,3.585,16.198c0.051,0.527,0.101,1.048,0.152,1.562
		c0.521,0.486,1.184,0.715,2.056,0.715c3.226,0,8.702-3.203,15.024-8.787l1.031-0.91l12.56,11.957l-0.979,1.084
		c-7.991,8.856-20.285,20.018-33.476,22.9C219.197,186.524,216.958,186.764,214.709,186.764z M200.18,143.001
		c1.307,0.371,3.551,0.73,6.592,0.731c3.043,0,5.285-0.356,6.591-0.725c-1.308-0.371-3.551-0.73-6.591-0.732l-0.021-1.5v1.5
		C203.721,142.276,201.484,142.633,200.18,143.001z M245.282,148.007l1.244-1.082c1.94-1.688,3.861-3.502,5.72-5.257
		c8.245-7.788,16.771-15.841,29.941-15.841c3.527,0,7.163,0.56,11.072,1.708c0.255-0.303,0.596-0.525,0.936-0.709l0.579-0.314
		l0.623,0.214c2.326,0.799,5.397,2.365,7.041,4.365c0.378,0.451,1.152,1.374,0.817,2.57c-0.322,1.168-1.341,1.228-1.542,1.228
		c-0.193,0-0.35-0.034-0.477-0.061c0,0-0.129-0.026-0.13-0.026c-0.243,0-0.671,0.128-1.086,0.252
		c-0.81,0.242-1.92,0.574-3.274,0.574c-1.483,0-2.953-0.385-4.492-1.176c-1.861-0.956-4.421-1.099-5.781-1.099l-0.145,0
		c-9.672,0.071-13.72,6.643-18.006,13.6c-2.719,4.413-5.529,8.976-9.875,11.946l-1.002,0.685L245.282,148.007z"/>
	<path fill="#2F83C2" d="M282.188,127.327c3.62,0,7.607,0.636,12.075,2.089c0.261-0.748,0.261-0.748,0.647-1.271
		c2.065,0.709,4.943,2.163,6.369,3.898c0.23,0.279,0.664,0.742,0.532,1.213c-0.026,0.097-0.036,0.132-0.098,0.132
		c-0.053,0-0.144-0.025-0.315-0.059c-0.102-0.02-0.206-0.029-0.314-0.029c-1.033,0-2.378,0.828-4.337,0.828
		c-1.069,0-2.322-0.247-3.807-1.01c-1.975-1.014-4.56-1.265-6.468-1.265c-0.052,0-0.104,0-0.154,0
		c-16.9,0.124-17.934,18.438-28.717,25.808l-10.091-9.604C257.971,138.958,266.708,127.327,282.188,127.327 M205.778,138.613
		c0.19,0,0.375,0.001,0.557,0.005c4.759,0.089,12.21,0.69,13.768,3.45c2.702,5.596,3.025,12.083,3.602,17.668
		c0.89,1.103,2.096,1.57,3.498,1.57c4.633,0,11.411-5.094,16.018-9.162l10.506,10.001c-6.576,7.288-19.078,19.466-32.683,22.44
		c-2.086,0.456-4.216,0.679-6.333,0.679c-9.387,0-18.547-4.38-22.704-12.258c-4.042-7.663-2.301-19.04,0.956-30.547
		C193.734,139.681,200.992,138.613,205.778,138.613 M206.791,145.233c5.054,0,9.147-0.993,9.147-2.223
		c0.001-1.229-4.103-2.23-9.165-2.234c-0.007,0-0.015,0-0.022,0c-5.052,0-9.144,0.996-9.144,2.224c0,1.23,4.102,2.231,9.165,2.233
		C206.778,145.233,206.784,145.233,206.791,145.233 M282.188,124.327c-13.767,0-22.513,8.261-30.972,16.25
		c-1.847,1.744-9.982,9.317-9.982,9.317c-5.963,5.267-11.208,8.411-14.031,8.411c-0.27,0-0.475-0.031-0.634-0.082
		c-0.027-0.278-0.054-0.557-0.081-0.838c-0.504-5.259-1.074-11.22-3.684-16.623l-0.041-0.086l-0.048-0.083
		c-1.144-2.025-4.079-4.745-16.324-4.975c-0.201-0.003-0.404-0.005-0.613-0.005c-3.291,0-14.147,0.436-15.707,6.042
		c-2.696,9.523-5.708,23.295-0.719,32.751c4.442,8.418,14.396,13.858,25.357,13.858c2.357,0,4.703-0.252,6.974-0.749
		c13.579-2.968,26.131-14.342,34.27-23.361l1.957-2.168c0,0,8.091-7.733,11.69-14.246c4.238-6.88,7.898-12.822,16.74-12.887l0.132,0
		c2.085,0,3.942,0.34,5.097,0.933c1.757,0.902,3.45,1.341,5.178,1.341c1.574,0,2.806-0.368,3.704-0.637
		c0.192-0.058,0.439-0.131,0.598-0.17c0.165,0.032,0.392,0.068,0.665,0.068c1.082,0,2.515-0.611,2.989-2.334
		c0.545-1.948-0.669-3.395-1.067-3.87l-0.042-0.05c-1.839-2.237-5.188-3.961-7.71-4.826l-1.246-0.428c0,0-1.564,0.864-1.744,0.992
		C289.143,124.834,285.62,124.327,282.188,124.327L282.188,124.327z"/>
</g>
<g>
	<path fill-rule="evenodd" clip-rule="evenodd" fill="#2F83C2" d="M364.625,147.517l-24.67-27.53
		c0.968-1.552,1.624-3.054,1.608-4.613c0.002-0.165,0.021-0.449,0.042-0.842c1.994-35.427-12.099-62.747-38.681-75.061
		c-5.22-4.5-12.641-7.595-22.073-9.202c-7.417-1.265-13.52-0.521-18.269,2.213c-35.082,0.515-55.935,24.491-58.22,27.252
		c-2.172,2.625-6.473,10.98-9.791,19.021c-3.842,9.311-4.979,14.602-4.883,17.852l-32.773,20.952
		c-0.132,0.084-0.259,0.177-0.381,0.276c-0.726,0.595-3.091,2.767-3.058,5.754c0.068,6.074,10.319,7.35,18.907,7.35
		c4.983,0,10.214-0.527,15.128-1.524c15.122-3.069,56.319-13.89,58.784-14.741c1.4-0.484,2.658-1.102,3.749-1.842
		c6.016,1.293,19.876,4.169,26.177,4.625c4.155,0.3,10.604,1.174,15.786,1.875c5.357,0.726,8.214,1.105,9.574,1.104
		c0.001,0,0.001,0,0.002,0c0.926-0.01,2.711-0.03,4.473-0.723c5.777,4.936,20.264,17.204,27.808,22.637
		c8.614,6.201,19.71,12.514,21.919,13.756c0.917,0.761,2.925,2.147,5.391,2.147c1.428,0,2.784-0.461,3.922-1.334
		c1.115-0.856,1.802-2.103,1.934-3.51C367.272,150.788,365.431,148.417,364.625,147.517z M244.989,110.891
		c-2.057,0.711-43.051,11.513-58.273,14.603c-15.225,3.088-29.211,0.646-29.24-1.951c-0.014-1.297,1.594-2.615,1.594-2.615
		l33.309-20.914c0.066,0.154,0.14,0.294,0.228,0.416c3.296,4.508,44.191,3.409,53,7.531l2.455,0.342
		c0.035,0.402,0.062,0.719,0.085,0.968C247.355,109.865,246.33,110.428,244.989,110.891z M249.459,104.024
		c0.087,0.984,0.153,1.737,0.204,2.315l-2.455-0.344c-8.811-4.122-49.705-3.022-53-7.532c-3.294-4.508,9.713-31.922,13.237-36.181
		c2.875-3.474,21.325-24.176,53.458-25.81c-6.105,4.786-7.661,13.87-8.367,22.716C251.395,73.485,249.088,99.808,249.459,104.024z
		 M301.539,116.436c-2.271,0.025-17.233-2.407-25.03-2.97c-7.796-0.564-24.724-4.598-24.724-4.598s0,0-0.371-4.217
		c-0.371-4.215,1.937-30.538,3.077-44.834c1.14-14.296,4.498-29.217,25.688-25.605c32.202,5.49,27.563,26.642,28.6,32.15
		c1.034,5.506-1.758,46.768-2.553,48.23C305.428,116.053,303.812,116.411,301.539,116.436z M310.728,66.339
		c-0.653-3.47,0.942-13.148-5.836-21.209c38.184,19.578,32.64,67.369,32.672,70.259c0.015,1.42-0.836,3.033-1.797,4.402
		l-0.433-0.481c0,0-6.546-4.797-12.082-6.36c-8.551-2.413-15.079,1.62-15.079,1.62C308.969,113.107,311.761,71.847,310.728,66.339z
		 M362.659,153.746c-2.011,1.543-4.556-0.924-4.556-0.924s-12.577-7.004-21.903-13.718c-9.324-6.715-27.354-22.269-27.354-22.269
		s6.527-4.033,15.079-1.62c5.537,1.562,12.082,6.36,12.082,6.36l25.639,28.61C361.646,150.186,363.947,152.757,362.659,153.746z"/>
	<g>
		<path fill="#FFFFFF" d="M323.926,115.215c5.537,1.562,12.082,6.36,12.082,6.36l25.639,28.61c0,0,2.301,2.571,1.013,3.56
			c-2.011,1.543-4.556-0.924-4.556-0.924s-12.577-7.004-21.903-13.718c-9.324-6.715-27.354-22.269-27.354-22.269
			S315.374,112.802,323.926,115.215z M194.208,98.464c3.295,4.509,44.189,3.41,53,7.532l2.455,0.344
			c-0.051-0.579-0.117-1.332-0.204-2.315c-0.371-4.216,1.936-30.539,3.077-44.835c0.706-8.846,2.262-17.93,8.367-22.716
			c-32.134,1.634-50.583,22.336-53.458,25.81C203.921,66.542,190.914,93.956,194.208,98.464z M308.173,114.569
			c0,0,6.528-4.032,15.079-1.62c5.536,1.562,12.082,6.36,12.082,6.36l0.433,0.481c0.961-1.369,1.812-2.982,1.797-4.402
			c-0.032-2.89,5.512-50.681-32.672-70.259c6.778,8.061,5.183,17.739,5.836,21.209C311.761,71.847,308.969,113.107,308.173,114.569z
			 M280.18,34.211c-21.19-3.612-24.549,11.309-25.688,25.605c-1.141,14.297-3.448,40.619-3.077,44.834
			c0.371,4.217,0.371,4.217,0.371,4.217s16.928,4.034,24.724,4.598c7.797,0.563,22.76,2.995,25.03,2.97
			c2.272-0.025,3.889-0.383,4.688-1.845c0.795-1.462,3.587-42.724,2.553-48.23C307.743,60.853,312.382,39.701,280.18,34.211z
			 M157.476,123.542c0.029,2.596,14.016,5.039,29.24,1.951c15.223-3.089,56.217-13.892,58.273-14.603
			c1.341-0.463,2.366-1.026,3.157-1.619c-0.022-0.249-0.05-0.566-0.085-0.968l-2.455-0.342c-8.81-4.123-49.704-3.023-53-7.531
			c-0.088-0.122-0.162-0.262-0.228-0.416l-33.309,20.914C159.069,120.928,157.461,122.245,157.476,123.542z"/>
	</g>
</g>
<g>
	<g>
		<path fill="#FFFFFF" d="M91.255,124.128c-11.604,0-22.428-5.179-29.697-14.208C48.39,93.557,50.988,69.531,67.349,56.363
			c6.744-5.43,15.218-8.421,23.86-8.421c11.604,0,22.429,5.179,29.698,14.208c6.379,7.926,9.29,17.863,8.197,27.979
			c-1.093,10.116-6.061,19.201-13.987,25.58C108.372,121.138,99.897,124.128,91.255,124.128L91.255,124.128z M91.212,54.466
			c-7.162,0-14.184,2.479-19.772,6.979c-6.57,5.286-10.687,12.813-11.593,21.197c-0.906,8.384,1.507,16.618,6.794,23.186
			c6.024,7.483,14.995,11.776,24.613,11.776c7.161,0,14.183-2.478,19.773-6.978c6.568-5.287,10.685-12.816,11.591-21.199
			c0.906-8.383-1.506-16.617-6.793-23.185C109.802,58.758,100.831,54.466,91.212,54.466z"/>
		<path fill="#2F83C2" d="M91.209,49.442c10.697,0,21.3,4.668,28.529,13.648c12.67,15.743,10.182,38.779-5.562,51.449
			c-6.761,5.443-14.868,8.089-22.921,8.089c-10.696,0-21.299-4.668-28.528-13.649c-12.67-15.744-10.181-38.777,5.562-51.448
			C75.05,52.088,83.156,49.442,91.209,49.442 M91.253,119.104c7.276,0,14.604-2.392,20.714-7.309
			c14.227-11.452,16.477-32.268,5.025-46.493c-6.532-8.117-16.113-12.336-25.781-12.335c-7.277,0-14.604,2.392-20.713,7.31
			C56.27,71.724,54.02,92.542,65.472,106.768C72.006,114.886,81.586,119.104,91.253,119.104 M91.209,46.442
			c-8.984,0-17.792,3.108-24.801,8.752C49.403,68.881,46.703,93.853,60.39,110.86c7.555,9.385,18.805,14.768,30.866,14.768
			c8.983,0,17.792-3.108,24.802-8.751c8.238-6.63,13.401-16.072,14.538-26.587c1.137-10.514-1.889-20.841-8.52-29.08
			C114.521,51.825,103.271,46.442,91.209,46.442L91.209,46.442z M91.253,116.104c-9.162,0-17.707-4.088-23.444-11.216
			c-5.036-6.256-7.334-14.099-6.471-22.084c0.863-7.985,4.784-15.155,11.041-20.189c5.401-4.349,11.913-6.647,18.833-6.647
			c9.163,0,17.707,4.088,23.444,11.216c5.036,6.256,7.334,14.099,6.471,22.083c-0.863,7.985-4.784,15.156-11.041,20.192
			C104.685,113.805,98.172,116.104,91.253,116.104L91.253,116.104z"/>
	</g>
	<path fill="#FFFFFF" d="M157.896,179.603c-1.499,0-2.329-0.64-2.762-1.177l-38.113-47.35l-0.005-0.115
		c-0.323-0.651-0.539-1.681-0.019-3.135l-1.947-2.422l9.461-7.616l1.904,2.366c0.302-0.045,0.593-0.068,0.873-0.068
		c1.456,0,2.279,0.606,2.713,1.114l37.834,47.002c1.86,2.312-0.361,6.093-3.517,8.633
		C162.166,178.568,159.765,179.603,157.896,179.603z"/>
	<path fill="#FFFFFF" d="M110.327,119.542l1.437-0.896c1.262-0.787,2.486-1.656,3.638-2.583c1.122-0.903,2.205-1.885,3.219-2.918
		l1.181-1.204l5.026,6.241l-9.459,7.618L110.327,119.542z"/>
	<path fill="#2F83C2" d="M169.005,167.262l-37.779-46.938l-0.046-0.057l-0.048-0.055c-0.896-1.045-2.265-1.626-3.844-1.626
		c-0.068,0-0.137,0.001-0.207,0.003l-0.146-0.181l0.001,0l-7.025-8.722l-2.362,2.408c-0.973,0.992-2.012,1.934-3.088,2.8
		c-1.105,0.89-2.28,1.724-3.491,2.479l-2.874,1.791l6.724,8.349l0.524,0.652c-0.247,1.101-0.636,2.502,0.151,3.469
		c0.905,1.112,38.47,47.731,38.47,47.731c0.902,1.12,2.297,1.737,3.93,1.737c2.232,0,4.916-1.129,7.363-3.1
		C169.686,174.44,171.227,170.023,169.005,167.262z M116.342,117.231c1.189-0.958,2.307-1.974,3.349-3.036l2.711,3.366l-7.125,5.735
		l-2.721-3.377C113.856,119.109,115.122,118.214,116.342,117.231z M163.378,175.667c-1.938,1.561-4.017,2.437-5.482,2.437
		c-0.698,0-1.256-0.199-1.593-0.618l-37.781-46.938l-0.025-0.029v-0.003c-0.504-0.665-0.376-1.731,0.238-2.922l-1.259-1.565
		l0.001-0.001l7.123-5.736l1.228,1.526c0.528-0.151,1.022-0.23,1.46-0.23c0.683,0,1.232,0.19,1.574,0.589v-0.001l0.027,0.031
		l37.778,46.938C167.712,170.441,166.24,173.363,163.378,175.667z"/>
	<g>
		<path fill="#2F83C2" d="M103.437,67.084l2.204-4.813c0,0,13.061,7.728,13.745,20.855C116.156,72.9,103.437,67.084,103.437,67.084z
			"/>
	</g>
	<g>
		<path fill="#2F83C2" d="M102.641,60.885l-2.414,4.728c0,0-15.769-7.316-29.34,0.06C85.948,52.28,102.641,60.885,102.641,60.885z"
			/>
	</g>
</g>
<g>
	<defs>
		<rect id="SVGID_1_" x="161.302" y="328.073" width="109.397" height="52.316"/>
	</defs>
	<clipPath id="SVGID_2_">
		<use xlink:href="#SVGID_1_"  overflow="visible"/>
	</clipPath>
	<path clip-path="url(#SVGID_2_)" fill="#2F83C2" d="M175.883,359.449c-0.111-0.858-0.057-2.101-0.057-2.711l1.289-14.638h4.794
		l-1.313,14.766c-0.283,3.197,0.97,5.477,4.161,5.477c3.262,0,4.986-2.318,5.271-5.152l1.359-15.09h4.79L194.854,357
		c-0.534,5.739-4.341,10.036-10.493,10.036C179.561,367.036,176.47,363.935,175.883,359.449"/>
	<path clip-path="url(#SVGID_2_)" fill="#2F83C2" d="M198.126,354.491c0.625-7.027,5.366-12.854,13.556-12.854
		c2.157,0,4.226,0.491,6.294,1.821l-0.548,5.806c-1.888-2.485-4.131-2.889-6.203-2.889c-5.097,0-7.892,3.539-8.291,8.02
		c-0.387,4.363,1.865,7.911,6.802,7.911c2.155,0,4.44-0.624,6.835-3.013l-0.532,5.96c-2.328,1.264-4.497,1.838-6.68,1.838
		C201.255,367.092,197.543,361.07,198.126,354.491"/>
	<path clip-path="url(#SVGID_2_)" fill="#2F83C2" d="M221.803,342.101h4.78l-1.745,19.88h6.849c0.483,0,2.114-0.024,2.558-0.051
		c-0.025,0.239-0.437,4.593-0.437,4.593h-14.173L221.803,342.101z"/>
	<path clip-path="url(#SVGID_2_)" fill="#2F83C2" d="M246.705,351.218c0.157-0.347,0.299-0.775,0.354-1.026
		c0-0.002,0.075-0.002,0.075-0.002c0.027,0.307,0.084,0.673,0.183,1.033c0.261,1.114,2.125,7.296,2.125,7.296h-6.035
		C243.407,358.519,246.641,351.374,246.705,351.218 M247.93,340.981l-0.33,0.006l-13.088,25.535h5.08l1.838-3.874h9.221l1.153,3.874
		h5.065L247.93,340.981z"/>
</g>
<g>
	<polygon fill="#2F83C2" points="178.267,380.39 216,409 253.732,380.39 	"/>
</g>
<polygon fill="#2F83C2" points="49.639,299.648 24.215,164.616 32.325,154.081 57.75,289.122 "/>
<polygon fill="#2F83C2" points="382.363,299.648 407.787,164.616 399.678,154.081 374.252,289.122 "/>
<path fill="#1E4B88" d="M216,194.031c-88.832,0-159.8-19.064-191.785-29.414l25.423,135.033
	c27.027,10.62,82.963,27.424,166.361,27.424c83.399,0,139.337-16.805,166.363-27.425l25.424-135.032
	C375.802,174.966,304.833,194.031,216,194.031z"/>
<g>
	<path fill="#FFE600" d="M120.786,235.27c2.649,2.615,5.687,4.815,10.005,5.389c3.337,0.443,6.438-0.344,6.863-3.55
		c0.391-2.944-1.883-4.378-5.783-6.095c-7.5-3.192-10.271-6.889-9.403-13.432c0.981-7.394,7.286-10.752,14.483-9.797
		c4.384,0.582,7.442,2.12,9.956,4.251l-1.085,8.179c-2.745-2.895-5.686-4.816-9.546-5.329c-3.337-0.442-5.386,0.95-5.708,3.371
		c-0.365,2.748,1.712,4.156,6.062,5.998c7.491,3.258,10.041,7.125,9.172,13.668c-1.077,8.113-7.966,10.861-15.949,9.802
		c-4.253-0.564-7.892-2.245-10.161-4.211L120.786,235.27z"/>
	<path fill="#FFE600" d="M163.392,242.431l-3.617,8.081l-8.757-0.621l17.917-38.036l10.074,0.714l12.501,40.193l-9.086-0.645
		l-2.44-8.511L163.392,242.431z M173.365,220.309l-6.99,15.518l11.654,0.827L173.365,220.309z"/>
	<path fill="#FFE600" d="M208.144,252.882l-14.49-39.285l8.975,0.052l10.711,30.816l10.936-30.691l8.909,0.052l-14.943,39.115
		L208.144,252.882z"/>
	<path fill="#FFE600" d="M253.76,251.799l-17.338-38.113l8.954-0.608l12.947,29.944l8.649-31.411l8.889-0.604l-12.027,40.107
		L253.76,251.799z"/>
	<path fill="#FFE600" d="M306.431,206.906l9.155-1.248l-10.736,26.31l1.969,14.453l-8.24,1.123l-1.969-14.453l-17.254-22.496
		l9.09-1.238l11.346,15.308L306.431,206.906z"/>
</g>
<g>
	<path fill="#FFE600" d="M73.312,282.22c2.445,2.807,5.309,5.229,9.572,6.124c3.294,0.692,6.445,0.14,7.109-3.025
		c0.61-2.906-1.549-4.506-5.309-6.51c-7.239-3.746-9.726-7.641-8.369-14.1c1.533-7.298,8.071-10.174,15.176-8.682
		c4.328,0.909,7.262,2.672,9.608,4.985l-1.696,8.073c-2.52-3.092-5.309-5.229-9.12-6.028c-3.294-0.692-5.441,0.543-5.943,2.933
		c-0.57,2.713,1.396,4.272,5.595,6.436c7.225,3.811,9.477,7.857,8.121,14.316c-1.682,8.01-8.758,10.232-16.638,8.578
		c-4.198-0.882-7.7-2.832-9.815-4.962L73.312,282.22z"/>
	<path fill="#FFE600" d="M129.772,295.79l-1.143,7.235l-25.097-3.965l6.118-38.721l24.706,3.904l-1.144,7.234l-16.557-2.615
		l-1.339,8.474l15.188,2.4l-1.123,7.104l-15.188-2.399l-1.37,8.67L129.772,295.79z"/>
	<path fill="#FFE600" d="M146.437,296.775l-3.829,7.982l-8.736-0.853l18.915-37.546l10.05,0.98l11.433,40.507l-9.065-0.885
		l-2.214-8.571L146.437,296.775z M156.99,274.927l-7.397,15.326l11.627,1.134L156.99,274.927z"/>
	<path fill="#FFE600" d="M188.62,308.34l-8.312-0.296l1.391-39.05c2.787-0.363,7.548-0.524,11.176-0.395
		c10.158,0.361,16.202,5.002,15.889,13.775c-0.202,5.673-3.578,9.581-7.868,11.344l10.612,15.437l-9.895-0.353l-8.897-13.526
		l-3.628-0.129L188.62,308.34z M189.334,288.287l2.836,0.102c4.75,0.169,7.913-1.502,8.075-6.054
		c0.15-4.222-2.813-6.309-7.629-6.479c-0.792-0.028-2.179-0.012-2.841,0.03L189.334,288.287z"/>
	<path fill="#FFE600" d="M244.587,280.178c-2.563-2.45-6.295-3.949-10.781-3.848c-7.06,0.16-11.561,5.477-11.39,12.998
		c0.175,7.72,5.303,12.62,12.297,12.462c4.486-0.102,7.689-1.494,10.927-4.274l0.196,8.644c-3.579,2.26-7.324,3.07-11.282,3.16
		c-12.272,0.278-20.444-7.854-20.715-19.797c-0.272-12.008,7.854-20.444,19.796-20.714c3.959-0.09,7.54,0.621,10.749,2.396
		L244.587,280.178z"/>
	<path fill="#FFE600" d="M277.507,266.582l8.285-0.732l3.453,39.056l-8.284,0.732l-1.401-15.846l-17.818,1.575l1.401,15.846
		l-8.351,0.738l-3.453-39.056l8.351-0.738l1.4,15.846l17.818-1.575L277.507,266.582z"/>
	<path fill="#FFE600" d="M323.572,292.504l1.085,7.246l-25.131,3.766l-5.811-38.774l24.74-3.707l1.086,7.245l-16.581,2.484
		l1.271,8.486l15.21-2.278l1.066,7.114l-15.21,2.279l1.301,8.682L323.572,292.504z"/>
	<path fill="#FFE600" d="M341.698,296.489l-8.144,1.681l-7.896-38.265c2.621-1.013,7.209-2.296,10.764-3.029
		c9.954-2.054,16.923,1.022,18.697,9.62c1.146,5.559-1.207,10.154-4.957,12.883l13.964,12.483l-9.695,2l-11.846-11.033l-3.555,0.733
		L341.698,296.489z M337.645,276.84l2.779-0.573c4.653-0.96,7.331-3.332,6.411-7.792c-0.854-4.137-4.227-5.463-8.945-4.488
		c-0.775,0.16-2.119,0.504-2.753,0.702L337.645,276.84z"/>
</g>
<path fill="#1E4B88" d="M408.218,152.081l8.109,10.535l-22.971,122.003c4.981-1.686,9.396-3.312,13.22-4.815L432,144.771"/>
<path fill="#1E4B88" d="M23.782,152.081l-8.109,10.535l22.971,122.003c-4.981-1.686-9.396-3.312-13.22-4.815L0,144.771"/>
<polygon fill="#FFFFFF" points="353.249,200.793 360.888,211.598 374.12,211.429 366.206,222.035 370.457,234.567 357.924,230.318 
	347.319,238.231 347.489,225.001 336.681,217.358 349.319,213.43 "/>
<polygon fill="#FFFFFF" points="79.752,200.793 72.113,211.598 58.88,211.429 66.794,222.035 62.543,234.567 75.077,230.318 
	85.681,238.231 85.511,225.001 96.32,217.358 83.681,213.43 "/>
</svg>
