<?xml version="1.0" encoding="utf-8"?>
<!-- Generator: Adobe Illustrator 16.0.0, SVG Export Plug-In . SVG Version: 6.00 Build 0)  -->
<!DOCTYPE svg PUBLIC "-//W3C//DTD SVG 1.1//EN" "http://www.w3.org/Graphics/SVG/1.1/DTD/svg11.dtd">
<svg version="1.1" id="Layer_1" xmlns="http://www.w3.org/2000/svg" xmlns:xlink="http://www.w3.org/1999/xlink" x="0px" y="0px"
	 width="348.48px" height="633.6px" viewBox="131.76 0 348.48 633.6" enable-background="new 131.76 0 348.48 633.6"
	 xml:space="preserve">
<path d="M454.896,0H157.104c-13.939,0-25.344,11.405-25.344,25.344v582.912c0,13.939,11.405,25.344,25.344,25.344h297.792
	c13.938,0,25.344-11.404,25.344-25.344V25.344C480.24,11.405,468.835,0,454.896,0z M437.155,17.107c3.168,0,5.702,2.534,5.702,5.702
	s-2.534,5.703-5.702,5.703s-5.702-2.535-5.702-5.703S433.987,17.107,437.155,17.107z M281.923,19.642h48.154
	c1.9,0,3.168,1.267,3.168,3.168s-1.901,2.534-3.168,2.534h-48.154c-1.901,0-3.168-1.267-3.168-3.168
	C278.755,20.275,280.656,19.642,281.923,19.642z M335.146,600.652h-58.925c-5.702,0-10.771-5.068-10.771-10.771
	s5.069-10.771,10.771-10.771h58.925c5.702,0,10.771,5.069,10.771,10.771C345.917,596.218,341.481,600.652,335.146,600.652z
	 M465.033,551.865H146.966V50.688H464.4v501.177H465.033z"/>
<g>
	<path d="M281.656,247.334c-2.579,0-4.649,2.095-4.649,4.649c0,9.881-13.129,18.222-28.676,18.222
		c-15.547,0-28.676-8.341-28.676-18.222c0-2.554-2.071-4.649-4.649-4.649c-2.56,0-4.649,2.095-4.649,4.649
		c0,15.435,16.691,27.52,37.975,27.52s37.974-12.082,37.974-27.52C286.305,249.43,284.219,247.334,281.656,247.334z"/>
	<path d="M376.731,251.984c0,9.881-13.129,18.222-28.676,18.222c-15.546,0-28.677-8.341-28.677-18.222
		c0-2.554-2.07-4.649-4.648-4.649c-2.561,0-4.649,2.095-4.649,4.649c0,15.435,16.691,27.52,37.975,27.52s37.975-12.082,37.975-27.52
		c0-2.554-2.089-4.649-4.649-4.649C378.802,247.334,376.731,249.43,376.731,251.984z"/>
	<path d="M298.195,309.621c-8.353,0-15.109,6.763-15.109,15.11s6.756,15.109,15.109,15.109c8.332,0,15.109-6.762,15.109-15.109
		S306.526,309.621,298.195,309.621z"/>
	<path d="M434.682,207.237h-28.232c-1.708-2.908-3.475-5.762-5.412-8.511l36.934-36.934c1.326-1.326,1.726-3.334,1.01-5.067
		c-0.72-1.732-2.42-2.87-4.299-2.87H386.03c-2.572,0-4.649,2.083-4.649,4.649c0,2.566,2.077,4.649,4.649,4.649h37.429l-28.04,28.041
		c-3.035-3.704-6.302-7.209-9.736-10.551c0.127-0.431,0.267-0.837,0.267-1.302c0-2.566-2.083-4.649-4.648-4.649h-2.154
		c-4.96-4.2-10.297-7.954-15.873-11.345l21.309-21.314c1.333-1.327,1.733-3.335,1.011-5.068c-0.723-1.732-2.414-2.87-4.292-2.87
		h-37.005c-2.572,0-4.649,2.083-4.649,4.649s2.077,4.649,4.649,4.649h25.781l-15.218,15.218
		c-17.048-8.669-36.272-13.669-56.665-13.669c-69.217,0-125.527,56.311-125.527,125.528c0,69.223,56.311,125.528,125.527,125.528
		c69.207,0,125.528-56.305,125.528-125.528c0-19.322-4.517-37.562-12.349-53.937h23.308c2.566,0,4.649-2.077,4.649-4.649
		C439.331,209.32,437.248,207.237,434.682,207.237z M395.582,207.237h-3.056l1.888-1.888
		C394.826,205.967,395.183,206.617,395.582,207.237z M363.903,174.693h-11.979l4.594-4.587
		C359.024,171.562,361.514,173.05,363.903,174.693z M414.427,270.472c0,64.096-52.145,116.229-116.228,116.229
		c-64.097,0-116.23-52.133-116.23-116.229c0-64.084,52.133-116.229,116.23-116.229c17.798,0,34.614,4.141,49.702,11.326
		l-5.749,5.756c-0.062-0.382,0.043-0.763-0.108-1.125c-0.72-1.733-2.421-2.871-4.299-2.871h-25.208
		c-2.566,0-4.649,2.083-4.649,4.649c0,2.567,2.083,4.649,4.649,4.649h13.984l-19.725,19.734c-1.327,1.321-1.727,3.329-1.004,5.062
		c0.713,1.739,2.408,2.87,4.293,2.87h27.659c2.565,0,4.648-2.077,4.648-4.649c0-2.566-2.083-4.649-4.648-4.649h-16.437
		l14.994-15.001c0.05,0.387-0.049,0.763,0.109,1.125c0.713,1.739,2.408,2.87,4.292,2.87h34.875
		c4.758,4.262,9.202,8.855,13.211,13.84l-10.777,10.776c-1.32,1.321-1.72,3.329-1.004,5.061c0.713,1.739,2.414,2.871,4.298,2.871
		h19.76C409.561,232.674,414.427,251.005,414.427,270.472z"/>
</g>
</svg>
