<?xml version="1.0" encoding="utf-8"?>
<!-- Generator: Adobe Illustrator 16.0.0, SVG Export Plug-In . SVG Version: 6.00 Build 0)  -->
<!DOCTYPE svg PUBLIC "-//W3C//DTD SVG 1.1//EN" "http://www.w3.org/Graphics/SVG/1.1/DTD/svg11.dtd">
<svg version="1.1" id="Layer_1" xmlns="http://www.w3.org/2000/svg" xmlns:xlink="http://www.w3.org/1999/xlink" x="0px" y="0px"
	 width="276.153px" height="547.74px" viewBox="172.058 41.04 276.153 547.74"
	 enable-background="new 172.058 41.04 276.153 547.74" xml:space="preserve">
<path d="M281.52,87.552c6.12,0,14.076,7.344,20.196,14.076c2.448-3.06,5.508-5.508,8.568-7.956c-1.836-3.06-3.672-5.508-5.508-6.12
	c-6.12-2.448-13.464-8.568-16.524-14.076c-4.896-0.612-8.568,1.224-10.404,1.836c0,0.612-0.612,3.06-1.224,7.344
	c0,1.836,0.612,3.672,1.836,5.508C279.684,87.552,280.296,87.552,281.52,87.552z M294.372,74.7c3.06,3.06,7.956,6.732,12.24,8.568
	c2.447,1.224,4.896,4.284,7.344,7.956c1.224-0.612,1.836-1.224,3.06-1.836c0.612-0.612,1.225-0.612,1.836-1.224
	c0.612-0.612,1.225-0.612,1.836-1.224c0.612,0,0.612,0,1.225-0.612c-0.612-3.06-1.225-5.508-1.836-8.568
	c-1.225-3.06-1.836-6.12-2.448-9.18c-1.836-5.508-4.284-9.792-6.12-11.628c-4.284-4.896-12.852-4.896-18.36-3.672
	c0,2.448-1.224,10.404-1.836,14.688c0,0.612,0,0.612,0,1.224c0,0.612,0.612,1.836,1.224,2.448
	C292.536,72.864,293.76,73.476,294.372,74.7z M281.52,108.36c3.672,1.836,7.344,4.284,11.016,6.12
	c1.224-2.448,2.448-4.284,4.284-6.732c0.612-0.612,0.612-1.224,1.224-1.836c0.612-0.612,0.612-0.612,1.224-1.224
	c-0.612-0.612-1.224-1.224-1.836-1.836c-5.508-6.12-11.016-11.016-14.688-11.016c0,0,0,0-0.612,0c-1.224,0-1.836,0-2.448,0
	c-1.224,0-1.836,0-2.448,0.612c-3.672,0.612-5.508,1.836-7.344,3.06c-0.612,0.612-1.836,1.224-2.448,1.224
	c-1.836,0.612-3.06,1.836-3.672,3.06c0.612,1.836,2.448,4.284,3.672,7.344C271.116,105.3,276.012,105.3,281.52,108.36z
	 M324.36,77.148c1.224,2.448,1.836,5.508,3.06,7.344c3.061-0.612,5.508-1.224,7.956-1.224c0.612-1.224,1.224-2.448,1.224-3.672
	c0-3.672,1.225-8.568,2.448-12.852l0,0c4.284-14.688-3.06-20.196-0.612-25.704c-1.224,0-4.896,0.612-7.955,4.896l-1.837,1.836
	c-5.508,6.12-9.18,11.016-7.955,20.196l0,0C321.912,71.028,323.136,74.088,324.36,77.148z M256.428,127.332
	c0.612,0.612,2.448,1.836,4.284,2.448c9.792-3.061,15.912-1.224,22.644,1.836c0.612,0,1.224,0.612,1.836,0.612
	c1.224-3.672,2.448-7.344,4.284-11.016c0.612-0.612,0.612-1.224,1.224-1.836v-0.612c-0.612-0.612-1.836-1.224-2.448-1.836
	c-2.448-1.836-5.508-3.06-8.568-4.896c-1.836-0.612-3.06-1.224-4.896-1.836c-2.448-0.612-4.284,0-6.732,0.612
	c-0.612,0-1.224,0.612-1.836,0.612c-0.612,0-1.224,0.612-1.836,0.612c-2.448,1.224-4.284,2.448-6.732,4.284
	c-1.224,0.612-1.836,1.224-2.448,1.836c-2.448,1.836-3.06,2.448-3.06,2.448c0,0.612,1.224,2.448,3.06,4.284L256.428,127.332z
	 M262.548,178.128c0.612,0,1.224,0,1.836,0c1.836-2.448,3.672-4.896,6.12-6.732c4.284-3.06,9.18-5.508,13.464-7.344
	c-1.224-3.06-1.836-6.12-1.836-9.792c-3.672,1.224-7.344,1.836-11.628,1.836c-4.284,1.224-8.568,1.836-10.404,2.448
	c-6.732,3.06-12.24,9.792-16.524,18.972c1.836,0.612,5.508,1.224,11.016,1.224C257.652,178.128,260.1,178.128,262.548,178.128z
	 M340.884,80.208c0,1.224,0,2.448,0,3.06c3.061,0.612,6.12,1.224,7.956,2.448c0,0,0,0,0.612,0
	c1.224-5.508,4.284-13.464,8.567-18.972c2.448-3.06,6.12-6.12,9.181-8.568c1.836-6.732-0.612-12.852-2.448-15.912
	c0-0.612-0.612-0.612-0.612-0.612c-0.611,0-1.224,0-1.224,0.612c-1.224,2.448-4.896,7.344-12.852,13.464
	c-3.061,2.448-5.509,6.12-6.732,9.792C342.108,71.64,341.496,76.536,340.884,80.208z M362.916,68.58
	c-0.612,0.612-1.224,1.224-1.836,1.836c-1.836,2.448-3.672,5.508-4.896,8.568c-1.224,2.448-1.836,4.284-2.447,6.732
	c-0.612,1.224-0.612,2.448-1.225,3.672l0,0c1.225,1.836,2.448,3.672,3.672,5.508c3.672-4.896,9.181-12.24,16.524-17.748
	c1.224-0.612,2.448-1.836,3.672-2.448c0,0,0-0.612,0.612-0.612c3.672-4.896,6.12-8.568,8.567-11.016
	c2.448-1.836,6.732-5.508,9.792-7.344c-3.06,0-7.344,0-9.792,0c-5.508,0.612-10.403,3.06-15.3,6.12
	c-1.224,0.612-2.448,1.836-3.672,2.448C365.976,65.52,364.752,66.744,362.916,68.58z M380.052,78.372
	c-1.224,0.612-2.448,1.224-3.672,2.448c-0.612,0.612-0.612,0.612-1.224,1.224c-4.896,4.284-9.181,9.18-12.24,13.464
	c-1.224,1.836-2.448,3.06-3.06,4.284c0,0.612-0.612,0.612-0.612,1.224c0.612,2.448,0.612,4.896,1.224,7.344c0.612,0,1.225,0,1.836,0
	c6.12-1.836,12.853-4.284,18.973-5.508c5.508-3.06,11.628-7.956,16.523-15.912c2.448-4.284,5.508-8.568,6.732-11.016
	C399.024,74.7,388.62,74.088,380.052,78.372z M381.888,105.912c-6.12,1.224-12.852,3.672-18.972,5.508
	c-1.224,0.612-1.836,0.612-3.06,1.224c0,3.06-0.612,6.12-1.225,9.18c0.612,0,0.612,0,1.225,0c5.508,0,15.3,0,23.867,1.224
	c2.448,0,4.896,0,7.345,0c9.18,0,17.748-7.344,21.42-11.016C407.592,108.972,394.74,103.464,381.888,105.912L381.888,105.912z
	 M333.54,168.336c-2.448,2.448-4.896,4.284-7.344,6.12c3.06,9.18,6.731,18.972,10.403,26.928
	c3.672,8.568,13.465,13.464,18.36,15.912c0.612-5.508,1.224-19.584-6.12-30.6C343.944,180.576,338.436,173.844,333.54,168.336z
	 M395.964,131.616c-2.448-2.448-7.344-3.672-12.24-4.284c-7.956-1.224-17.748-1.224-24.479-1.224c-0.612,0-1.225,0-1.836,0
	c-0.612,3.672-1.836,7.344-3.672,11.016c1.224,0.612,3.06,0.612,4.283,1.224c0.612,0,1.837,0,2.448,0.612
	c4.284,0.612,8.568,2.448,12.853,5.508c3.672,2.448,12.852,6.12,36.107-1.224c-1.224-1.224-3.06-2.448-4.284-3.06
	C402.696,137.124,399.636,134.676,395.964,131.616z M357.408,142.02c-1.836-0.612-3.672-1.224-4.896-1.224c0,0,0,0.612-0.611,0.612
	c-1.225,1.836-1.836,4.284-3.061,6.12c0,0.612-0.611,0.612-0.611,1.224c5.508,5.508,12.852,12.852,19.584,17.748
	c6.731,4.896,17.136,3.06,21.42,1.836c-1.225-1.836-3.673-5.508-9.792-12.852C373.932,148.14,364.752,144.468,357.408,142.02z
	 M343.944,155.484c-1.836,2.448-3.672,4.896-5.509,7.344c1.225,4.284,4.284,8.568,7.345,12.852c0.611,0.612,0.611,1.224,1.224,1.836
	c2.448,2.448,4.896,4.896,6.732,6.12c6.731,3.672,16.523,4.284,20.808,4.284c-2.448-4.896-7.956-14.688-15.3-22.644
	C351.9,157.932,346.392,156.096,343.944,155.484z M296.82,180.576c-1.224-0.612-1.836-1.224-3.06-1.836
	c-3.672,6.12-9.792,15.912-7.956,26.316c1.224,5.508,3.672,9.792,4.284,12.852c1.224,4.896,1.836,7.344,1.836,9.792
	c2.448-0.612,7.344-4.284,9.18-8.568c1.224-3.672,1.224-12.852,1.224-20.808c0-5.508,0-11.016,0.612-15.3c-0.612,0-0.612,0-1.224,0
	C299.88,181.8,298.044,181.188,296.82,180.576z M310.896,181.8c-1.837,6.732-3.061,18.36,1.224,29.376
	c5.508,13.464,9.792,18.36,11.628,19.584c2.448-3.06,9.18-11.628,7.956-22.032c-1.224-11.016-6.732-23.256-11.628-30.6
	C317.016,179.964,313.956,181.188,310.896,181.8z M290.088,175.068C290.088,175.068,289.476,175.068,290.088,175.068
	c-0.612-0.612-1.224-1.224-1.836-1.836c-0.612-0.612-0.612-1.224-1.224-1.836c-0.612-1.224-1.224-2.448-1.836-3.672
	c-3.672,1.836-8.568,4.284-12.24,6.732c-1.224,0.612-2.448,1.836-3.672,3.672c-0.612,0.612-1.224,1.224-1.836,2.448
	c-0.612,0.612-1.224,1.224-1.224,2.448c-3.06,5.508-5.508,11.628-7.344,16.524c-0.612,1.836-1.224,3.06-1.836,4.284
	c-1.224,3.06-2.448,5.508-3.06,6.732c1.836,0.612,10.404-0.612,17.136-4.284c5.508-3.672,6.732-11.628,11.628-19.584
	C285.192,181.8,287.64,178.128,290.088,175.068z M269.28,151.2c4.284,0,8.568-1.224,12.24-2.448c0-0.612,0-1.224,0-1.224
	c0-3.06,0.612-6.12,1.224-9.792c0-0.612,0-1.224,0.612-1.836c0,0-1.224,0-1.836,0l0,0c-4.896-2.448-9.792-3.672-16.524-2.448
	c-1.224,0-2.448,0.612-4.284,1.224c-1.836,0.612-3.672,1.224-5.508,1.836c-4.284,1.836-9.18,6.12-12.24,8.568
	c5.508,1.836,17.136,5.508,22.032,6.12C266.832,151.2,268.056,151.2,269.28,151.2z M331.704,164.052
	c0.612-0.612,1.224-1.224,1.224-1.836c0,0,0,0,0.612-0.612s1.224-1.224,1.836-1.836s1.224-1.836,1.836-2.448
	c0.612-0.612,1.224-1.224,1.224-1.836c0.612-0.612,1.225-1.836,1.836-2.448c0.612-0.612,1.225-1.224,1.225-1.836
	c0.612-0.612,0.612-1.224,1.224-1.224c0.612-0.612,0.612-1.224,1.225-1.836c0.611-0.612,0.611-1.224,1.224-1.836l0,0
	c0.612-1.836,1.836-3.06,2.448-4.896c0,0,0-0.612,0.611-0.612c0-0.612,0.612-0.612,0.612-1.224c0-0.612,0-0.612,0.612-1.224
	c0-0.612,0.612-0.612,0.612-1.224s0-0.612,0.611-1.224c1.225-3.06,2.448-6.12,3.061-9.18c0-0.612,0-0.612,0-1.224
	c0-0.612,0-0.612,0-1.224s0-0.612,0-1.224c0-0.612,0-0.612,0-1.224v-0.612c0.611-2.448,0.611-4.896,1.224-6.732
	c0-0.612,0-1.836,0-2.448l0,0v-0.612c0-0.612,0-0.612,0-1.224l0,0c0-0.612,0-1.224,0-2.448c0-0.612,0-0.612,0-1.224
	c0-1.224,0-2.448-0.612-3.672c0-0.612,0-1.224-0.611-1.836c0-0.612,0-0.612-0.612-1.224V99.18c0-0.612-0.612-1.224-0.612-1.836
	c0-0.612-0.611-1.224-0.611-1.836c-0.612-0.612-1.225-1.836-1.836-2.448l0,0c-0.612-0.612-0.612-1.224-1.225-1.224
	c0,0-0.611,0-0.611-0.612c-0.612-0.612-0.612-0.612-1.225-0.612l0,0c-1.836-0.612-3.672-1.224-5.508-1.836h-0.612
	c-0.611,0-1.224,0-1.836,0c0,0,0,0-0.612,0c-0.611,0-1.224,0-1.836,0h-0.611c-0.612,0-1.836,0-2.448,0
	c-1.224,0-3.06,0.612-4.896,0.612c-0.612,0-0.612,0-1.225,0.612h-0.612c0,0,0,0-0.611,0c-0.612,0-1.225,0.612-1.836,0.612
	c0,0,0,0-0.612,0s-0.612,0-1.224,0.612c0,0-0.612,0-0.612,0.612c-0.612,0-0.612,0.612-1.224,0.612
	c-0.612,0.612-1.225,0.612-1.836,1.224c-1.225,0.612-2.448,1.224-3.673,2.448c-0.611,0.612-1.224,0.612-1.836,1.224
	c-0.611,0.612-1.224,0.612-1.836,1.224c-3.06,2.448-5.508,4.896-7.956,7.956c-0.612,0.612-1.224,1.224-1.224,1.836l-0.612,0.612
	c0,0.612-0.612,0.612-0.612,0.612l-0.612,0.612c-0.612,0.612-0.612,1.224-1.224,1.836c-1.224,1.836-2.448,3.672-3.672,6.12v0.612
	c0,0.612-0.612,0.612-0.612,1.224l0,0v0.612c0,0.612-0.612,0.612-0.612,1.224c0,0,0,0.612-0.612,0.612
	c-1.836,3.672-3.06,7.344-4.284,11.016c0,0.612-0.612,1.224-0.612,1.224v0.612c0,0.612,0,0.612-0.612,1.224v0.612
	c0,0.612,0,0.612-0.612,1.224c-0.612,3.06-1.224,5.508-1.224,8.568v0.612c0,0.612,0,1.224,0,1.224c0,0.612,0,0.612,0,1.224
	s0,0.612,0,1.224c0,0.612,0,0.612,0,1.224c0,3.672,0.612,6.732,1.224,9.792c0,0.612,0.612,1.224,0.612,1.836
	c0,0.612,0.612,1.224,0.612,1.836c0,0.612,0.612,1.224,0.612,1.836c0.612,0.612,0.612,1.224,1.224,1.836
	c0.612,0.612,0.612,1.224,1.224,1.836c0,0,0,0,0.612,0.612l0,0c0.612,0.612,0.612,0.612,1.224,1.224l0,0
	c0.612,0.612,0.612,0.612,1.224,1.224l0,0c0.612,0.612,1.836,1.224,2.448,1.836c1.836,0.612,3.06,1.224,5.508,1.836
	c0.612,0,1.224,0,2.448,0c0.612,0,1.224,0,1.836,0h0.611c0.612,0,1.225,0,1.836-0.612c0.612,0,1.836-0.612,2.448-0.612
	c1.836-0.612,3.06-1.224,4.896-2.448c0.611-0.612,1.224-0.612,1.836-1.224c0.611,0,0.611-0.612,1.224-0.612l0,0c0,0,0,0,0.612,0
	c0.611-0.612,1.224-0.612,1.224-1.224c0.612-0.612,1.224-0.612,1.836-1.224c1.836-1.224,3.672-3.06,5.508-4.896
	C331.092,164.664,331.704,164.052,331.704,164.052z M306.612,154.26C306.612,154.26,306,154.26,306.612,154.26
	c-2.448,0.612-4.284,0.612-6.12-0.612c-6.12-4.284-5.508-17.136,1.224-29.988c7.344-13.464,17.748-21.42,24.48-17.748
	c5.508,3.06,7.344,13.464-1.225,29.988C319.464,147.528,311.508,153.036,306.612,154.26z M324.972,108.36
	c-1.224-0.612-2.447-0.612-3.672-0.612c-4.896,1.224-11.628,6.732-17.136,16.524c-6.732,12.852-7.344,23.868-2.448,26.316
	c0.612,0.612,1.836,0.612,3.672,0c4.284-1.224,11.627-6.12,17.136-17.136C330.48,118.764,328.644,110.196,324.972,108.36z
	 M317.016,131.616c-3.672,6.12-10.403,15.912-13.464,11.628c-2.448-3.06,0-10.404,3.061-17.136c1.836-3.672,4.284-6.12,6.12-7.956
	c5.508-5.508,7.955-3.06,7.955-3.06C321.912,116.928,320.076,124.884,317.016,131.616z M231.948,345.204
	C231.336,345.204,231.336,345.204,231.948,345.204C231.336,345.204,231.336,345.204,231.948,345.204L231.948,345.204z
	 M333.54,437.004c-0.612-0.612-0.612-1.224-1.224-1.836c-0.612-0.612-1.225-1.224-1.225-1.836
	c-3.672-4.284-6.731-9.18-10.404-12.853c-1.224,0.612-3.06,1.225-4.283,1.837c3.06,6.119,5.508,13.464,6.12,19.584
	c0.611,5.508,0,10.403-1.225,15.3c6.732,5.508,13.464,9.792,17.136,11.628c1.836-9.18,2.448-23.256-0.611-27.54
	C335.988,440.064,334.152,438.228,333.54,437.004z M362.916,430.884c-3.672-1.224-7.344-2.448-10.404-4.896
	c-4.896-3.672-8.567-10.404-11.628-15.912c-1.224-0.612-1.836-1.225-3.06-1.225c-3.061,2.448-6.12,4.896-9.792,7.345
	c1.836,4.896,4.896,11.016,7.344,15.912c0.612,0.611,0.612,1.224,1.224,1.836c1.225,1.224,2.448,3.06,3.672,4.283
	c4.896,4.896,11.629,9.181,18.973,11.017c4.284,1.224,6.731,2.448,8.567,2.448c-0.611-3.673-1.224-9.792-3.06-14.688
	C365.364,435.168,364.14,433.332,362.916,430.884z M393.516,394.776c-3.672,1.224-7.956,1.836-12.239,1.836
	c-2.448,0-4.896,0-6.732-0.612c-6.731-1.224-14.688-6.12-20.196-10.404c-0.611,1.224-1.224,2.448-1.836,3.672c0,0,0,0,0.612,0.612
	c0.612,0.612,4.896,3.672,9.18,7.344h0.612c9.18,2.448,15.3,6.12,20.196,11.628c3.06,0,7.344,0,11.016-0.611
	c4.284-0.612,7.344-1.225,9.18-1.225C400.86,404.568,397.188,399.672,393.516,394.776
	C393.516,395.388,393.516,395.388,393.516,394.776z M389.844,334.8c-6.12,4.896-13.464,7.956-20.195,7.956c-1.225,0-3.061,0-4.896,0
	c-1.224,0-2.448,0-3.06,0c-1.836,0-3.061,0-4.896,0c0,0-0.612,0-0.612,0.612c0.612,2.448,1.225,5.508,1.836,7.956
	c2.448,0,4.896,0.612,7.956,0.612c0,0,0,0,0.612,0c1.836-0.612,3.672-0.612,4.896-1.224c6.731-1.836,15.912-1.224,23.867,2.448
	c2.448-0.612,4.284-1.836,6.732-3.06c3.672-1.836,6.12-3.672,7.956-4.896c-3.06-2.448-7.956-5.508-12.853-7.956
	C394.74,336.024,392.292,335.412,389.844,334.8z M309.672,298.692c2.448,0.612,4.896,1.224,7.344,2.448c0-2.448,0-4.896,0-7.956
	c0-1.836,0-3.672,0-4.896c0-7.344,4.284-17.136,10.404-24.48c-0.612-2.448-1.224-4.896-1.836-7.344
	c-1.224-4.284-2.448-6.732-3.06-8.568c-3.061,2.448-7.345,6.732-10.404,11.016c-1.224,1.224-1.836,3.06-3.061,4.896
	c3.061,11.628,3.061,22.032-1.224,31.212C308.448,295.02,309.06,296.856,309.672,298.692z M249.084,299.304
	c-0.612-0.612-1.224-0.612-1.836-1.224c3.06,3.672,6.12,7.956,7.344,12.24c1.224-1.224,2.448-1.836,3.672-2.448
	c-0.612-0.612-0.612-1.224-1.224-2.448c-1.224-0.612-2.448-1.836-3.672-3.06C252.144,301.14,250.308,300.528,249.084,299.304z
	 M225.216,279.72c3.672,1.836,11.016,7.344,17.748,13.464c-4.284-5.508-7.956-13.464-8.568-20.808
	c-0.612-0.612-1.224-0.612-2.448-1.224c-3.672-1.836-6.732-3.06-7.956-3.672c0,3.06,0,7.344,0,11.628
	C224.604,279.72,224.604,279.72,225.216,279.72z M321.912,287.676c0,1.224,0,3.06,0,5.508c0,0.612,0,0.612,0,1.224
	c0,2.448,0,5.508,0,7.956v0.612c1.224,0.612,2.448,1.224,3.672,1.836c0,0,0,0,0.612-0.612c0,0,1.836-1.836,4.284-4.284
	c3.672-8.568,9.18-18.36,13.464-22.032c1.224-0.612,2.447-1.836,3.672-2.448c0.611-3.06,0.611-7.344,0.611-11.016
	c0-4.284-0.611-7.344-0.611-9.18c-3.061,1.836-8.568,4.896-12.853,7.956c-0.611,0.612-1.224,0.612-1.224,1.224
	c-0.612,0.612-1.836,1.836-2.448,2.448c-0.611,1.224-1.836,1.836-2.448,3.06c-3.672,4.896-5.508,11.016-5.508,15.912
	C321.912,287.064,321.912,287.064,321.912,287.676z M398.412,360.504c-1.225-0.612-2.448-1.224-3.672-2.448
	c-1.225-0.612-2.448-1.224-3.672-1.224c-1.836-0.612-3.061-1.224-4.896-1.224c-3.06-0.612-6.12-0.612-9.18-0.612
	c-1.836,0-3.061,0.612-4.896,0.612h-0.611c-1.225,0.612-3.061,0.612-4.284,1.224c-0.612,0-0.612,0-1.225,0.612
	c-1.836,0.612-4.896,1.224-7.344,2.448c0,1.836,0,3.06,0,4.896c9.792-0.612,24.48-0.612,30.601,2.448
	c3.06,1.836,6.731,4.896,9.792,7.956c0.611,0,1.224-0.612,1.836-0.612c4.283-1.224,6.731-2.448,8.567-3.06
	C407.592,367.848,403.308,363.564,398.412,360.504z M269.28,280.332c0.612,7.344,3.06,17.748,3.672,20.196
	c2.448-0.612,4.896-1.224,7.344-1.836c-1.836-6.12-3.672-14.688-2.448-19.584c1.224-6.12-3.06-14.688-11.016-23.256
	c-3.06-3.06-4.896-4.896-6.12-6.732c-1.224,3.06-3.06,7.344-4.284,12.24C262.548,266.256,268.668,272.376,269.28,280.332z
	 M239.904,276.048c1.836,7.344,6.732,15.3,11.628,18.972c0,0,0,0,0.612,0c1.224,0.612,2.448,1.836,3.672,3.06l0,0
	c1.224,0.612,3.06,1.836,4.284,3.06c1.224,0.612,2.448,1.836,3.672,2.448c0.612-0.612,1.836-0.612,2.448-1.224
	c0.612,0,0.612-0.612,1.224-0.612c0,0,0,0,0-0.612c0,0,0-1.224-0.612-1.836c0-1.224-0.612-3.06-1.224-4.896
	c-0.612-4.284-1.836-9.792-2.448-14.076c-0.612-4.284-3.672-9.18-8.568-13.464c-0.612-0.612-1.224-1.224-2.448-1.836
	c-0.612-0.612-1.224-1.224-2.448-1.836c-1.224-0.612-1.836-1.224-3.06-1.836c-3.672-2.448-6.12-3.672-7.956-4.896
	c-0.612,3.06-0.612,7.956-0.612,12.852c0,0.612,0,1.224,0,2.448v0.612C239.904,274.212,239.904,274.824,239.904,276.048z
	 M202.572,339.696c3.672-0.612,7.344-0.612,11.016,0.612c1.224,0.612,3.06,1.224,4.284,1.224c5.508-0.612,12.24-1.224,15.912-1.836
	c0.612-1.224,1.224-2.448,1.224-3.672c-3.672-0.612-12.24-2.448-18.36-3.06c-7.956-0.612-14.688-6.732-18.972-12.24
	c-4.896,1.224-9.18,3.06-12.24,4.284c1.224,1.224,3.672,3.06,6.732,6.12C195.228,334.8,198.9,337.86,202.572,339.696z
	 M198.9,315.216c0.612,0.612,1.224,1.836,1.836,2.448c0.612,0.612,1.224,1.836,1.836,2.448c4.896,4.896,9.792,7.956,14.076,8.568
	c4.284,0.612,9.792,1.224,14.076,1.836c2.448,0.612,4.284,0.612,5.508,1.224c0.612,0,0.612,0,0.612,0
	c0.612-0.612,0.612-1.224,1.224-1.836c0.612-0.612,0.612-1.836,1.224-2.448c-0.612-0.612-1.224-1.836-1.836-3.06
	c-3.672-0.612-7.344-1.836-11.628-4.284c-0.612-0.612-1.836-0.612-2.448-1.224c-3.672-2.448-7.344-4.896-9.792-8.568
	c-1.836-2.448-3.06-4.284-4.896-6.732c-0.612,0-1.224,0-1.836,0c-5.508,0-11.628,0.612-15.3,1.224
	c1.224,1.836,2.448,4.284,4.896,7.956C197.676,313.38,198.288,314.604,198.9,315.216z M261.936,422.316
	c1.224-1.225,1.836-2.448,3.06-3.673l0,0c-1.836-1.224-3.672-2.447-6.12-3.672c-0.612,0.612-1.836,1.225-2.448,1.836
	c-1.836,3.673-4.896,10.404-6.12,14.688c-1.836,6.12-7.344,10.404-12.852,13.464c0,0.612,0,0.612,0,1.224
	c0,5.509,0.612,11.629,1.224,15.301c1.836-1.225,4.284-2.448,7.956-4.896c1.836-1.224,3.672-2.448,5.508-3.672
	c-0.612-9.18,2.448-20.196,7.344-26.316C259.488,425.376,260.712,423.54,261.936,422.316z M244.8,430.271
	c0.612-1.836,1.836-4.283,2.448-6.731c0.612-1.836,1.224-3.06,2.448-4.896c0.612-1.836,1.836-3.672,2.448-4.896
	s1.224-1.836,1.224-2.448c-1.224-1.224-2.448-1.836-3.672-3.06h-0.612c-3.672,6.12-9.792,14.076-17.136,20.195
	c-3.672,3.061-8.568,4.284-12.852,5.509c-1.836,4.896-2.448,10.403-2.448,14.075c1.836-0.611,4.896-1.224,8.568-2.447
	c3.06-1.225,5.508-1.836,7.956-3.061c1.224-0.611,1.836-1.224,3.06-1.836c1.224-0.611,2.448-1.224,3.06-2.448
	C241.74,435.78,244.188,433.332,244.8,430.271z M290.088,432.108c-0.612-1.837-0.612-4.284-0.612-6.732
	c-2.448,0-5.508-0.612-7.956-1.224c0.612,4.283,0.612,9.792,1.836,14.688c1.224,7.956-2.448,15.912-7.344,22.032
	c2.448,4.284,5.508,8.568,7.344,11.016c1.224-1.836,2.448-4.283,4.284-7.956c1.836-3.06,3.06-6.119,3.672-9.18
	c-1.224-1.836-1.836-3.672-2.448-6.12C288.252,443.736,288.864,437.616,290.088,432.108z M276.624,425.988c0-1.225,0-1.836,0-3.061
	c-0.612,0-0.612,0-1.224-0.611c-0.612,0-1.836-0.612-2.448-0.612c-1.224-0.612-2.448-1.224-3.672-1.224l0,0
	c-1.224,1.224-2.448,3.06-3.06,4.283c0,0,0,0,0,0.612c-1.224,1.224-1.836,2.448-3.06,3.672c0,0,0,0.612-0.612,0.612
	c-3.672,4.284-6.12,11.628-6.12,18.359c0,1.225,0,2.448,0,3.673c0,1.224,0,1.836,0.612,3.06v0.612
	c1.224,5.508,3.672,11.016,4.896,14.076c1.224-1.225,3.06-3.673,6.12-6.732c0.612-1.224,1.836-1.836,2.448-3.06
	c0.612-0.612,1.224-1.225,1.836-2.448c0.612-0.612,1.224-1.836,1.836-2.448c3.672-5.508,5.508-11.016,4.896-15.3
	C277.848,435.78,277.236,430.271,276.624,425.988z M364.14,304.812c-2.447,3.672-6.731,6.732-11.016,9.792
	c-2.448,3.672-4.896,7.344-6.732,9.18c1.225,1.836,2.448,3.672,3.061,5.508l0,0c2.448-2.448,9.18-9.18,12.852-14.076
	c5.509-6.732,14.688-8.568,22.645-9.18c1.836-3.672,3.06-7.956,3.672-10.404c-1.836,0-4.896,0.612-9.18,1.224
	c-5.509,0.612-9.792,1.836-13.465,3.672C365.976,302.364,365.364,303.588,364.14,304.812z M386.172,311.544c-1.224,0-1.836,0-3.06,0
	c-7.345,0.612-12.853,3.06-15.912,6.732c-2.448,3.06-5.508,6.12-7.956,8.568c-1.225,1.224-2.448,2.448-3.061,3.06
	c-1.836,1.836-3.06,3.06-3.06,3.06l0,0c0.612,1.224,1.224,2.448,1.836,4.284c0.612,0,0.612,0,1.224,0c1.836,0,4.284,0,6.12,0
	c1.225,0,1.836,0,2.448,0c1.224,0,3.061,0,4.284,0c0.612,0,0.612,0,1.224,0c3.672,0,7.956-1.224,11.628-3.06
	c1.225-0.612,3.061-1.224,4.284-2.448c1.225-0.612,1.836-1.224,3.061-2.448c1.836-1.224,3.06-3.06,4.283-4.896
	c3.672-4.284,6.12-9.792,7.956-12.852c-1.836,0-4.896,0-9.18-0.612c-0.612,0-1.836,0-2.448,0
	C388.008,311.544,386.784,311.544,386.172,311.544z M376.992,411.3c-3.061-3.06-7.344-5.508-12.24-7.344
	c-1.224-0.612-2.448-0.612-3.672-1.224c-0.612,0-1.224-0.612-1.836-0.612c-3.061-0.612-8.568-1.836-12.853-3.061
	c-1.224,1.225-1.836,2.448-3.06,4.284c0.612,1.225,1.224,1.836,1.836,3.061c0.612,1.224,1.224,3.06,2.448,4.283
	c1.224,2.448,3.06,4.896,4.896,7.345c1.225,1.224,2.448,3.06,3.672,3.672l0,0c1.836,1.224,3.673,2.448,6.12,3.06
	c1.225,0.612,2.448,0.612,4.284,1.225c7.344,1.836,15.912,1.836,20.809,1.836c0.611,0,1.224,0,1.224,0
	c-2.448-5.508-5.508-10.404-8.568-14.076C378.828,413.136,378.216,411.912,376.992,411.3z M196.452,364.788
	c3.06-1.836,6.12-3.672,9.18-4.284c4.896-1.224,11.016-0.612,16.524,0c0.612,0,1.224-0.612,1.836-0.612
	c1.224-0.612,3.672-1.836,6.12-3.672c0-1.836,0.612-4.284,0.612-6.12c-2.448-0.612-7.956-1.836-13.464-3.672
	c-1.836-0.612-4.284-1.224-6.12-1.836h-0.612c-1.224,0-1.836,0-3.06-0.612c-1.836,0-3.672,0-6.12,0.612
	c-4.284,1.224-9.792,3.06-14.688,6.732c-3.672,2.448-6.12,4.284-7.344,4.896c3.06,1.836,7.956,4.896,13.464,7.344
	C194.004,364.176,195.228,364.176,196.452,364.788z M200.736,405.18c6.732-8.567,22.032-13.464,32.436-15.912
	c0.612-0.612,1.224-1.224,1.836-2.448c-1.224-2.448-1.836-4.896-2.448-7.344c-1.224,0-3.06,0.612-4.896,1.224
	c-1.836,1.224-3.672,3.06-6.12,4.896c-7.956,6.12-14.688,7.956-22.644,8.568c-1.224,1.836-2.448,3.672-3.672,5.508
	c-2.448,3.672-3.672,6.12-4.896,7.956c1.836,0,4.896,0.612,8.568,0.612C199.512,407.016,200.124,406.404,200.736,405.18z
	 M199.512,389.268c1.224,0,3.06-0.612,4.284-0.612c4.284-0.612,7.956-2.448,12.24-5.508c0.612-0.612,1.224-0.612,1.836-1.224
	c0.612-0.612,1.836-1.224,2.448-1.836c1.224-1.224,3.06-1.836,4.284-3.06c1.836-1.224,3.672-3.06,5.508-4.284
	c0-1.224-0.612-3.06-0.612-4.284c-1.836-0.612-4.284-1.224-6.732-1.836c-1.224,0-2.448-0.612-4.284-0.612s-4.284-0.612-6.12-0.612
	c-2.448,0-4.284,0-6.12,0.612c-0.612,0-0.612,0-1.224,0.612c-1.836,0.612-3.672,1.224-4.896,2.448
	c-1.224,0.612-1.836,1.224-3.06,1.836c-6.12,4.896-11.628,11.628-15.3,15.912c-0.612,0.612-0.612,0.612-1.224,1.224
	c5.508,1.224,10.404,1.836,14.688,2.448C197.676,389.268,198.9,389.268,199.512,389.268z M220.932,427.824
	c2.448-0.612,5.508-1.836,7.344-3.672c4.896-3.672,9.18-8.568,12.24-12.853c1.224-1.224,1.836-2.448,2.448-3.672
	c0.612-1.224,1.224-2.448,2.448-3.672c0,0,0,0,0-0.612c-3.06-3.06-5.508-6.731-7.344-10.404c-0.612,0-1.224,0-1.836,0.612
	c-1.224,0-2.448,0.612-3.672,1.224c-1.224,0.612-2.448,0.612-3.672,1.224c-9.18,2.448-18.972,6.732-23.868,12.24c0,0,0,0,0,0.611
	c-0.612,0.612-1.224,1.225-1.836,2.448c-0.612,0.612-1.224,1.836-1.836,2.448c-4.284,6.12-6.12,11.628-6.732,14.688
	c3.672,0.612,12.24,2.448,20.196,1.225c1.224,0,1.836-0.612,3.06-0.612C218.484,428.436,219.708,428.436,220.932,427.824z
	 M211.14,298.692c0.612,1.224,1.836,1.836,2.448,3.06c0.612,1.224,1.836,2.448,2.448,3.672c0.612,0.612,0.612,1.224,1.224,1.836
	c3.672,5.508,9.18,8.568,14.688,10.404c1.224,0.612,3.06,1.224,4.284,1.224c1.224,0.612,2.448,0.612,3.672,0.612
	c1.224,0,3.06,0.612,3.672,0.612c1.224-1.836,2.448-3.06,4.284-4.284c0.612-0.612,1.224-1.224,1.836-1.836l0.612-0.612v-0.612
	c0-0.612,0-1.224-0.612-1.836c-3.06-9.792-16.524-20.196-24.48-25.704c-1.224-0.612-1.836-1.224-2.448-1.836l0,0
	c-0.612-0.612-1.836-0.612-3.06-1.224c-6.732-1.836-17.748-1.836-22.032-1.224c1.224,2.448,4.896,6.12,7.344,9.792
	C206.856,293.796,209.304,296.244,211.14,298.692z M291.312,296.856c3.06,0,6.12,0,9.18,0.612c0.612-0.612,1.224-1.224,1.224-1.836
	c0.612-0.612,0.612-1.224,1.224-1.836c0.612-1.224,1.224-2.448,1.836-3.672c0.612-1.836,1.224-3.672,1.224-5.508
	c0.612-3.672,0.612-7.344,0-11.628c0-1.836-0.612-3.672-1.224-5.508c-0.612-1.224-0.612-2.448-1.224-4.284
	c-0.612-1.224-0.612-3.06-1.224-4.284c-1.836-4.284-6.12-9.792-8.568-12.852c-3.06,6.732-9.792,22.644-10.404,31.212
	c-0.612,7.344,3.06,15.912,6.12,20.196C290.088,296.856,290.7,296.856,291.312,296.856z M310.284,424.152
	c-0.612,0-1.836,0.611-2.448,0.611s-1.836,0.612-2.448,0.612c-2.448,0.612-4.896,0.612-7.344,0.612
	c-0.612,1.836-1.224,4.283-1.836,6.731c-0.612,1.836-0.612,3.061-1.224,4.896c-0.612,3.672-0.612,6.731,0,9.792
	c0,1.224,0.612,1.836,1.224,3.06c0.612,1.225,1.224,2.448,1.836,3.672c3.672,7.345,10.404,13.464,13.464,16.524c0,0,0,0,0-0.612
	c1.225-2.448,3.061-6.12,4.284-10.403c0-0.612,0.612-1.837,0.612-2.448c0-1.225,0.611-1.836,0.611-3.061
	c0.612-3.672,1.225-7.344,0.612-11.016c-1.224-6.732-3.672-13.464-6.12-18.972C310.896,423.54,310.284,423.54,310.284,424.152z
	 M395.964,377.64c-0.612-0.612-1.224-1.224-2.448-1.836c-2.447-1.836-4.283-3.672-6.731-4.896
	c-3.672-1.836-11.628-2.448-20.196-2.448c-1.836,0-3.672,0-4.896,0c-1.225,0-2.448,0-3.061,0v0.612
	c-0.612,3.672-1.224,7.344-2.448,11.016v0.612c0.612,0.612,1.836,1.224,2.448,1.836c1.225,0.612,2.448,1.836,3.672,2.448
	c4.284,3.06,9.181,5.508,13.464,6.12c4.284,0.612,8.568,0,13.465-0.612c1.224,0,1.836-0.612,3.06-0.612s1.836-0.612,3.06-0.612
	c3.673-1.224,6.732-2.448,9.181-3.06c-1.225-1.836-3.672-3.672-5.508-6.12C397.188,379.476,396.576,378.864,395.964,377.64z
	 M345.168,284.004c-1.224,1.224-2.448,3.06-3.672,5.508c-1.224,1.836-2.448,4.284-3.672,6.732c-1.225,2.448-2.448,4.284-3.061,6.732
	c-0.611,1.836-1.836,4.284-2.447,6.12c3.06,2.448,6.119,4.896,8.567,7.344c3.061-1.224,6.12-3.06,9.181-5.508
	c1.836-1.224,3.672-2.448,5.508-3.672c1.836-1.836,3.672-3.672,5.508-5.508c0,0,0-0.612,0.612-0.612
	c0.611-1.224,1.836-2.448,2.447-4.284c3.061-7.956,4.284-18.36,4.284-23.256c-3.672,1.224-10.403,3.06-15.3,5.508
	c-1.224,0.612-1.836,1.224-3.06,1.836c-0.612,0.612-1.225,0.612-1.836,1.224C346.392,282.78,345.78,283.392,345.168,284.004z
	 M321.3,359.28c-0.612-15.3-13.464-27.54-29.376-26.316c-15.3,0.612-27.54,13.464-26.928,29.376
	c0.612,15.3,13.464,27.54,29.376,26.316C310.284,387.432,322.524,374.58,321.3,359.28z M279.072,361.116
	c-0.612-7.956,6.12-14.688,14.076-15.3s14.688,6.12,15.3,14.076c0.611,7.956-6.12,14.688-14.076,15.3
	C286.416,375.192,279.684,369.072,279.072,361.116z M294.372,421.092c0.612,0,1.836,0,2.448,0l0,0c0.612,0,1.836,0,2.448,0
	c1.836,0,4.284-0.611,6.12-0.611c0.612,0,1.835-0.612,2.448-0.612h0.612c0.611,0,1.224-0.612,1.836-0.612h0.612
	c0.611,0,1.836-0.612,2.447-0.612c1.225-0.611,1.836-0.611,3.061-1.224c0.611-0.612,1.836-0.612,2.447-1.224
	c0.612-0.612,1.836-0.612,2.448-1.225c0,0,0.612,0,0.612-0.611c0.612-0.612,1.224-0.612,2.448-1.225
	c0.611-0.611,1.224-1.224,2.447-1.224c2.448-1.224,4.284-3.06,6.12-4.896c0.612-0.611,1.225-1.224,1.836-1.836
	c0.612-0.611,1.225-1.224,1.836-1.836l0,0c0.612-0.611,1.225-1.224,1.836-1.836c1.225-1.224,2.448-2.447,3.061-4.284
	c0.612-0.611,1.224-1.224,1.836-2.448c0.612-1.224,1.224-1.836,1.836-3.06c0.612-0.612,1.224-1.836,1.224-3.06
	c0.612-0.612,0.612-1.836,1.225-2.448c0.611-0.612,0.611-1.224,1.224-2.448c0-0.612,0.612-0.612,0.612-1.224
	c0-0.612,0-0.612,0.612-1.224c0-0.612,0.611-1.836,0.611-2.448c0.612-3.06,1.225-5.508,1.836-8.568c0-0.612,0-1.224,0-1.836v-0.612
	c0-0.612,0-1.224,0-2.448l0,0c0-1.836,0-3.672,0-5.508l0,0c0-0.612,0-1.836,0-2.448l0,0c0-0.612,0-1.836,0-2.448
	c0-0.612,0-1.836-0.611-2.448c-0.612-1.836-0.612-3.672-1.225-5.508c0-0.612-0.611-1.836-0.611-2.448v-0.612
	c0-0.612-0.612-1.224-0.612-1.836s-0.612-0.612-0.612-1.224c-0.611-1.224-1.224-2.448-1.224-3.672c0-0.612-0.612-0.612-0.612-1.224
	c0-0.612-0.612-0.612-0.612-1.224c0-0.612-0.611-0.612-0.611-1.224c-0.612-0.612-0.612-1.836-1.225-2.448
	c0-0.612-0.611-0.612-0.611-1.224c-0.612-0.612-1.225-1.836-1.836-2.448c-0.612-0.612-1.225-1.224-1.836-1.836
	c-0.612-0.612-1.225-1.224-1.225-1.836c-0.611-0.612-1.224-1.224-1.836-1.836c-0.612-0.612-1.224-1.224-1.836-1.836
	c-1.836-1.836-3.672-3.06-5.508-4.896c-0.612-0.612-1.224-1.224-1.836-1.224c-0.612-0.612-1.225-0.612-1.836-1.224l0,0
	c-0.612-0.612-1.836-1.224-2.448-1.224c-0.612-0.612-1.836-0.612-2.448-1.224c0,0,0,0-0.611,0c-0.612-3.06-1.837-3.06-2.448-3.672
	h-0.612c-0.612,0-1.224-0.612-1.836-0.612c-1.836-0.612-3.06-1.224-4.896-1.836c-1.225,0-1.837-0.612-3.061-0.612
	c-0.612,0-1.836-0.612-3.06-0.612c-0.612,0-1.836-0.612-2.448-0.612c-1.224,0-1.836,0-3.06-0.612c-1.224,0-1.836,0-3.06,0
	c-1.836,0-3.672,0-4.896,0H290.7c-0.612,0-1.224,0-2.448,0c-0.612,0-1.224,0-2.448,0h-0.612c-0.612,0-1.224,0-1.836,0
	s-1.836,0.612-2.448,0.612c-1.836,0.612-4.284,1.224-6.12,1.836c-0.612,0-1.836,0.612-2.448,0.612l0,0
	c-0.612,0.612-1.836,0.612-2.448,1.224l0,0c-1.224,0.612-1.836,0.612-3.06,1.224c-0.612,0.612-1.224,0.612-2.448,1.224
	c0,0-0.612,0-0.612,0.612c-0.612,0-1.224,0.612-1.224,0.612c-0.612,0.612-1.224,1.224-1.836,1.224
	c-1.836,1.224-3.06,1.836-4.284,3.06l-0.612,0.612c-0.612,0.612-1.224,0.612-1.224,1.224c-0.612,0.612-0.612,0.612-1.224,1.224
	l-0.612,0.612c-1.836,1.224-3.06,3.06-4.284,4.896c-0.612,0.612-1.224,1.836-1.836,2.448c-0.612,0.612-0.612,1.224-1.224,1.836
	c-0.612,0.612-1.224,1.836-1.836,2.448c-0.612,1.224-1.224,1.836-1.836,3.06c0,0.612-0.612,0.612-0.612,1.224
	c0,0.612-0.612,0.612-0.612,1.224c0,0.612-0.612,0.612-0.612,1.224c0,0.612-0.612,0.612-0.612,1.224c0,0,0,0.612-0.612,0.612
	c-0.612,1.224-0.612,1.836-1.224,3.06c-0.612,0.612-0.612,1.836-0.612,2.448c0,0.612-0.612,1.224-0.612,1.836
	c0,0.612-0.612,1.836-0.612,2.448c0,0.612-0.612,1.836-0.612,2.448l0,0c0,1.224-0.612,2.448-0.612,3.672s0,2.448,0,3.06
	c0,1.224,0,3.06,0,4.284c0,0,0,0,0,0.612s0,1.224,0,2.448c0,1.836,0,3.06,0.612,4.896c0,1.224,0.612,1.836,0.612,3.06l0,0
	c0,0.612,0.612,1.836,0.612,2.448s0.612,1.836,0.612,2.448c0,1.224,0.612,1.836,0.612,3.06c0.612,1.224,0.612,1.836,1.224,3.06
	c0.612,1.224,0.612,1.836,1.224,2.448l0,0c0.612,0.612,0.612,1.836,1.224,2.448c0.612,0.612,0.612,1.836,1.224,2.448
	c1.224,2.448,3.06,4.284,4.896,6.731c0.612,0.612,1.224,1.225,1.836,1.837c0.612,0.611,0.612,0.611,1.224,1.224l0.612,0.612
	c0.612,0.611,1.224,1.224,1.836,1.836c1.224,1.224,2.448,2.447,3.672,3.06c0.612,0.612,1.224,0.612,1.836,1.224
	c0,0,0.612,0,0.612,0.612c0.612,0.612,1.224,0.612,1.836,1.224c0.612,0.612,1.224,1.225,2.448,1.225
	c0.612,0.611,1.224,0.611,1.836,1.224c0.612,0.612,1.836,0.612,2.448,1.225l0,0c0.612,0.611,1.224,0.611,2.448,1.224l0,0
	c0.612,0.612,1.836,0.612,2.448,1.224c0.612,0.612,1.836,0.612,3.06,1.225h0.612c0.612,0,1.224,0.611,1.836,0.611h0.612
	c0.612,0,1.224,0,1.836,0.612h0.612c2.448,0.612,5.508,1.224,7.956,1.224c0.612,0,1.836,0,2.448,0
	C292.536,421.092,293.148,420.48,294.372,421.092L294.372,421.092z M261.324,361.728c-0.612-17.748,12.852-33.048,31.212-33.66
	c17.748-0.612,33.048,12.852,33.66,31.212c0.611,17.748-12.853,33.048-31.212,33.66
	C277.236,393.552,261.936,379.476,261.324,361.728z M356.184,452.304c0,0-7.956-1.836-9.18-4.284
	c-0.612,2.448-11.628,79.561-9.792,140.761h9.18C345.168,533.7,356.184,452.916,356.184,452.304z M200.124,481.68
	c5.508-4.283,12.24-9.792,23.868-11.628c7.956-1.224,17.748,0,26.928,3.061c1.224,4.283,3.06,9.792,4.284,13.464
	c1.836,5.508,4.284,17.748,2.448,23.256c-1.836,5.508-2.448,5.508-5.508,4.284c-3.06-1.225-12.852-6.12-15.912-7.345
	c-3.06-1.224-13.464-6.119-17.748-7.955C214.2,496.98,205.02,490.86,200.124,481.68z M261.324,496.368
	c-0.612-2.448-4.284-14.688-6.732-22.032c7.344,2.448,14.076,6.12,19.584,10.404c10.404,7.956,13.464,18.972,14.688,24.479
	c1.836,5.508-3.06,14.076-1.224,18.973c0,0.611-11.628,1.224-23.256-7.345c-3.06-2.447-4.896-4.283-3.06-9.18
	C262.548,506.771,261.936,500.04,261.324,496.368z M310.896,588.78c-3.673-14.688-6.121-31.212-9.181-47.124
	c-5.508-2.448-13.464-2.448-17.136-0.612c-7.344,4.896-3.06,19.584-34.272,28.152c-2.448,0.611-5.508,1.224-7.956,1.224
	c0-4.284,0.612-8.568,1.836-11.628c3.672-11.628,16.524-31.824,23.868-29.988c7.344,1.836,15.3,6.12,22.032,3.061
	c3.06-1.225,7.344-1.225,9.792-1.225c-4.896-31.823-7.344-58.752-7.344-59.976c0,0,1.836-4.896,2.448-11.016
	c1.836,4.283,14.688,17.747,14.688,17.747c0,9.181,0.612,70.381,12.24,111.385H310.896z M177.48,494.532
	c-1.224-0.612-2.448-0.612-3.672-1.225c-0.612-0.611-1.224-1.224-1.224-1.224c-3.672-1.836,12.852-4.284,19.584-5.508
	c1.836-0.612,3.672-1.836,6.12-3.061c5.508,9.181,15.3,15.912,17.748,17.137C209.916,500.652,187.884,498.204,177.48,494.532z
	 M192.168,544.716c0-0.612-0.612-0.612-0.612-1.224c-7.344-12.853-5.508-23.256-7.344-31.824c-0.612-2.448-4.284-9.792-7.956-14.688
	c3.672,1.224,8.568,3.06,15.3,4.283c4.896,1.225,28.152,3.061,34.272,4.896c6.12,1.836,10.404,4.284,7.344,4.896
	c-3.06,1.225-14.688,3.061-22.644,8.568C200.736,524.52,194.616,534.312,192.168,544.716z M254.592,536.148
	c-5.508,6.731-11.628,18.359-12.852,28.764c0,1.836-0.612,4.284-0.612,6.12c-22.644,1.836-39.168-12.853-47.124-23.868
	c1.224-6.12,5.508-18.972,16.524-24.48c13.464-6.731,24.48-9.792,31.212-7.956c6.732,1.837,18.972,6.732,20.196,10.404
	C262.548,527.58,260.712,529.416,254.592,536.148z M381.276,224.028c-0.612-3.672,0-11.016,4.283-17.748
	c2.448-3.672,6.12-6.732,9.792-9.792c-0.611,4.896,0,12.852,0,14.688c0,2.448,1.225,6.732,3.061,9.18
	c1.836,2.448,1.224,4.284,0,6.12c-4.896,7.344-11.628,9.18-11.628,9.18C386.172,232.596,381.888,228.312,381.276,224.028z
	 M397.188,203.832c0-2.448,0-6.12,0-8.568c4.896-3.672,11.017-6.12,15.912-6.732c7.345-0.612,12.24,1.224,16.524,2.448
	c-1.224,6.12-6.12,11.628-7.956,13.464c-2.448,1.836-7.344,6.732-9.18,7.956s-6.732,6.12-8.568,7.344
	c-1.836,1.224-2.448,1.224-4.284-1.836C397.8,214.848,397.188,208.116,397.188,203.832z M416.16,246.06
	c1.224,1.836,2.448,4.284,3.06,6.732c-1.836,0-3.06,0.612-4.896,0.612c-20.196,0.612-20.196-9.18-25.704-11.016
	c-2.448-0.612-8.568,1.224-11.017,4.284c-0.611,13.464-1.836,29.376-3.672,46.512c0,0-6.12,2.448-6.731,1.836
	c1.836-4.284,3.672-18.972,1.224-26.928c4.284-50.184-11.016-77.724-11.016-78.336c0,0,9.792,3.06,15.912,3.06
	c3.06,7.956,5.508,24.48,4.896,47.124c0.612,0,1.836-0.612,3.061-0.612c0.611,0,1.224,0,3.06,0c4.284,0,8.568-4.284,12.852-6.732
	C400.86,230.76,411.876,239.94,416.16,246.06z M447.984,192.816c0,0-0.612,0.612-0.612,1.224c-0.612,0.612-1.224,1.224-1.836,1.836
	c-5.508,3.672-18.36,9.18-21.42,10.404c1.224-1.224,6.12-6.732,7.344-13.464c1.836,0.612,3.06,0.612,4.284,0.612
	C440.028,192.204,449.82,190.98,447.984,192.816z M444.924,229.536c-2.448,7.956-9.792,19.584-23.868,22.644
	c-0.611-1.224-0.611-2.448-1.224-3.672c-2.448-6.12-7.956-12.24-12.852-14.688c-5.509-3.06-6.732-3.672-6.732-5.508
	s6.12-7.344,10.404-9.792c3.672-2.448,11.016-2.448,20.195-0.612C438.192,219.132,443.088,225.864,444.924,229.536z M444.312,206.28
	c0.612,5.508,3.673,11.628,1.225,20.808c0,0,0,0.612,0,1.224c-3.672-5.508-8.568-10.404-15.3-12.24
	c-6.12-1.224-13.465-0.612-15.301-0.612s0-2.448,3.673-4.284c3.672-1.836,17.136-7.344,19.584-9.18
	c3.672-2.448,6.119-3.672,8.567-5.508C445.536,199.548,444.312,204.444,444.312,206.28z"/>
</svg>
